<?xml version="1.0" encoding="utf-8"?>
<!-- Generator: Adobe Illustrator 16.0.0, SVG Export Plug-In . SVG Version: 6.00 Build 0)  -->
<!DOCTYPE svg PUBLIC "-//W3C//DTD SVG 1.1//EN" "http://www.w3.org/Graphics/SVG/1.1/DTD/svg11.dtd">
<svg version="1.1" id="Capa_1" xmlns="http://www.w3.org/2000/svg" xmlns:xlink="http://www.w3.org/1999/xlink" x="0px" y="0px"
	 width="248px" height="71px" viewBox="0 0 248 71" enable-background="new 0 0 248 71" xml:space="preserve">
<path fill="none" stroke="#E1E1E1" stroke-miterlimit="10" d="M22.278,37.941c9.132-0.356,16.77-1.529,24.777-2.758
	c9.649-1.481,19.627-3.011,32.411-3.011c12.785,0,22.764,1.53,32.412,3.011c9.608,1.475,18.684,2.867,30.445,2.867
	c11.76,0,20.836-1.393,30.443-2.867c9.648-1.481,19.626-3.011,32.412-3.011c6.393,0,12.084,0.382,17.383,0.95"/>
<g>
	<g>
		<path fill="#A9A9A9" d="M318,41.5c1.935,0,1.935-3,0-3S316.065,41.5,318,41.5L318,41.5z"/>
	</g>
</g>
</svg>
