<?xml version="1.0" encoding="utf-8"?>
<!-- Generator: Adobe Illustrator 19.0.0, SVG Export Plug-In . SVG Version: 6.00 Build 0)  -->
<svg version="1.1" id="Layer_1" xmlns="http://www.w3.org/2000/svg" xmlns:xlink="http://www.w3.org/1999/xlink" x="0px" y="0px"
	 viewBox="-391 418 408.4 6.9" style="enable-background:new -391 418 408.4 6.9;" xml:space="preserve">
<style type="text/css">
	.st0{fill:none;stroke:#FCFCFC;stroke-miterlimit:10;}
</style>
<g>
	<g>
		<path class="st0" d="M-390.9,423.5c5.4,0.6,10.5,0.8,15.6,0.8c11.8,0,20.8-1.4,30.4-2.9s19.6-3,32.4-3s22.8,1.5,32.4,3
			s18.7,2.9,30.4,2.9c11.8,0,20.8-1.4,30.4-2.9c9.6-1.5,19.6-3,32.4-3s22.8,1.5,32.4,3c9.6,1.5,18.7,2.9,30.4,2.9
			c11.8,0,20.8-1.4,30.4-2.9s19.6-3,32.4-3s22.8,1.5,32.4,3s18.7,2.9,30.4,2.9c5.1,0,10.2-0.3,15.6-0.8"/>
	</g>
</g>
</svg>
