<?xml version="1.0" encoding="utf-8"?>
<!-- Generator: Adobe Illustrator 16.0.0, SVG Export Plug-In . SVG Version: 6.00 Build 0)  -->
<!DOCTYPE svg PUBLIC "-//W3C//DTD SVG 1.1//EN" "http://www.w3.org/Graphics/SVG/1.1/DTD/svg11.dtd">
<svg version="1.1" id="Capa_1" xmlns="http://www.w3.org/2000/svg" xmlns:xlink="http://www.w3.org/1999/xlink" x="0px" y="0px"
	 width="408.171px" height="161px" viewBox="0 0 408.171 161" enable-background="new 0 0 408.171 161" xml:space="preserve">
<g>
	<defs>
		<rect id="SVGID_1_" x="24.544" y="15.934" width="354.708" height="99.337"/>
	</defs>
	<clipPath id="SVGID_2_">
		<use xlink:href="#SVGID_1_"  overflow="visible"/>
	</clipPath>
	<path clip-path="url(#SVGID_2_)" fill="#204395" d="M83.493,55.824c0,0-3.168-2.327-3.168-7.24c0-4.914,3.082-6.143,4.116-6.143
		c1.336,0,2.155,0.667,2.155,2.263C86.596,47.291,80.26,48.001,83.493,55.824"/>
	<path clip-path="url(#SVGID_2_)" fill="#204395" d="M78.858,52.18c0,0-3.586-1.609-4.62-6.413
		c-1.033-4.804,1.722-6.653,2.733-6.871c1.307-0.28,2.248,0.201,2.583,1.76C80.098,43.184,74.053,45.211,78.858,52.18"/>
	<path clip-path="url(#SVGID_2_)" fill="#204395" d="M73.561,49.591c0,0-3.846-0.82-5.865-5.299
		c-2.021-4.48,0.285-6.867,1.228-7.292c1.218-0.55,2.24-0.277,2.895,1.177C72.881,40.536,67.397,43.788,73.561,49.591"/>
	<path clip-path="url(#SVGID_2_)" fill="#204395" d="M67.837,48.173c0,0-3.931,0.008-6.847-3.947
		c-2.917-3.955-1.166-6.772-0.332-7.386c1.075-0.793,2.13-0.741,3.077,0.542C65.27,39.463,60.593,43.796,67.837,48.173"/>
	<path clip-path="url(#SVGID_2_)" fill="#204395" d="M62.123,47.979c0,0-3.847,0.808-7.509-2.468
		c-3.661-3.277-2.522-6.392-1.832-7.164c0.891-0.996,1.935-1.161,3.123-0.097C57.833,39.975,54.137,45.17,62.123,47.979"/>
	<path clip-path="url(#SVGID_2_)" fill="#204395" d="M56.283,49.011c0,0-3.588,1.604-7.86-0.825
		c-4.271-2.428-3.816-5.715-3.304-6.614c0.66-1.162,1.646-1.543,3.032-0.755C50.399,42.095,47.885,47.954,56.283,49.011"/>
	<path clip-path="url(#SVGID_2_)" fill="#204395" d="M50.825,51.238c0,0-3.172,2.322-7.859,0.846
		c-4.686-1.477-4.932-4.785-4.621-5.771c0.401-1.275,1.284-1.855,2.805-1.376C43.618,45.714,42.392,51.971,50.825,51.238"/>
	<path clip-path="url(#SVGID_2_)" fill="#14955B" d="M51.312,52.821c0,0-3.641,1.481-4.843,6.246
		c-1.202,4.764,1.486,6.709,2.489,6.962c1.295,0.327,2.253-0.12,2.643-1.667C52.232,61.854,46.264,59.615,51.312,52.821"/>
	<path clip-path="url(#SVGID_2_)" fill="#14955B" d="M44.203,58.576c0,0-2.912,2.64-2.408,7.528
		c0.504,4.887,3.697,5.792,4.725,5.687c1.329-0.138,2.075-0.886,1.911-2.472C48.166,66.746,41.79,66.69,44.203,58.576"/>
	<path clip-path="url(#SVGID_2_)" fill="#14955B" d="M39.498,66.42c0,0-1.831,3.48,0.321,7.898c2.149,4.418,5.458,4.173,6.388,3.721
		c1.202-0.584,1.646-1.544,0.947-2.978C46.023,72.736,40.014,74.869,39.498,66.42"/>
	<path clip-path="url(#SVGID_2_)" fill="#14955B" d="M37.769,75.403c0,0-0.527,3.896,3.008,7.309
		c3.535,3.413,6.56,2.049,7.278,1.305c0.927-0.961,1.016-2.014-0.132-3.123C46.064,79.099,41.151,83.162,37.769,75.403"/>
	<path clip-path="url(#SVGID_2_)" fill="#14955B" d="M39.224,84.433c0,0,0.842,3.84,5.333,5.834c4.492,1.994,6.864-0.325,7.284-1.27
		c0.542-1.221,0.264-2.241-1.194-2.889C48.283,85.06,45.062,90.562,39.224,84.433"/>
	<path clip-path="url(#SVGID_2_)" fill="#14955B" d="M43.688,92.417c0,0,2.107,3.317,7.01,3.651
		c4.902,0.333,6.336-2.659,6.406-3.689c0.091-1.333-0.521-2.196-2.111-2.303C52.413,89.9,51.274,96.173,43.688,92.417"/>
	<path clip-path="url(#SVGID_2_)" fill="#14955B" d="M50.619,98.386c0,0,3.118,2.395,7.837,1.025
		c4.719-1.367,5.041-4.668,4.753-5.663c-0.372-1.282-1.241-1.884-2.773-1.439C57.952,93.029,59.033,99.312,50.619,98.386"/>
	<path clip-path="url(#SVGID_2_)" fill="#14955B" d="M59.177,101.616c0,0,3.75,1.18,7.714-1.724s3.133-6.115,2.522-6.951
		c-0.79-1.077-1.812-1.343-3.099-0.4C64.228,94.07,67.397,99.602,59.177,101.616"/>
	<path clip-path="url(#SVGID_2_)" fill="#14955B" d="M68.323,101.715c0,0,3.928-0.175,6.655-4.263
		c2.728-4.088,0.846-6.821-0.014-7.395c-1.112-0.741-2.163-0.639-3.048,0.686C70.48,92.895,75.354,97.004,68.323,101.715"/>
	<path clip-path="url(#SVGID_2_)" fill="#14955B" d="M76.95,98.674c0,0,3.628-1.515,4.789-6.289c1.16-4.774-1.543-6.695-2.548-6.939
		c-1.299-0.316-2.251,0.139-2.629,1.688C75.951,89.648,81.939,91.835,76.95,98.674"/>
	<path clip-path="url(#SVGID_2_)" fill="#14955B" d="M84.009,92.857c0,0,2.889-2.665,2.342-7.55
		c-0.546-4.882-3.746-5.761-4.774-5.645c-1.328,0.148-2.067,0.903-1.889,2.487C79.976,84.721,86.352,84.723,84.009,92.857"/>
	<path clip-path="url(#SVGID_2_)" fill="#14955B" d="M88.646,84.972c0,0,1.8-3.495-0.388-7.895c-2.187-4.399-5.494-4.126-6.42-3.666
		c-1.196,0.594-1.632,1.558-0.921,2.986C82.068,78.712,88.057,76.528,88.646,84.972"/>
	<path clip-path="url(#SVGID_2_)" fill="#14955B" d="M90.294,76.333c0,0,0.545-3.893-2.973-7.324
		c-3.517-3.43-6.548-2.082-7.27-1.341c-0.933,0.957-1.027,2.01,0.114,3.123C82.017,72.595,86.95,68.556,90.294,76.333"/>
	<path clip-path="url(#SVGID_2_)" fill="#14955B" d="M88.829,67.137c0,0-0.847-3.839-5.34-5.828
		c-4.494-1.987-6.864,0.334-7.282,1.28c-0.541,1.222-0.261,2.241,1.198,2.887C79.769,66.522,82.982,61.017,88.829,67.137"/>
	<path clip-path="url(#SVGID_2_)" fill="#14955B" d="M84.478,59.313c0,0-2.086-3.332-6.987-3.694
		c-4.899-0.364-6.353,2.62-6.429,3.65c-0.098,1.333,0.507,2.198,2.097,2.316C75.738,61.777,76.916,55.511,84.478,59.313"/>
	<path clip-path="url(#SVGID_2_)" fill="#14955B" d="M77.438,53.214c0,0-3.118-2.394-7.837-1.024c-4.719,1.37-5.04,4.672-4.75,5.665
		c0.372,1.284,1.242,1.883,2.773,1.439C70.108,58.574,69.023,52.29,77.438,53.214"/>
	<path clip-path="url(#SVGID_2_)" fill="#14955B" d="M69.025,50.014c0,0-3.743-1.2-7.723,1.683
		c-3.979,2.881-3.166,6.098-2.559,6.936c0.784,1.082,1.805,1.353,3.097,0.417C63.934,57.534,60.793,51.985,69.025,50.014"/>
	<path clip-path="url(#SVGID_2_)" fill="#14955B" d="M59.955,49.854c0,0-3.929,0.145-6.69,4.209
		c-2.761,4.064-0.903,6.812-0.047,7.394c1.104,0.751,2.159,0.659,3.055-0.661C57.725,58.657,52.884,54.508,59.955,49.854"/>
	<path clip-path="url(#SVGID_2_)" fill="#204395" d="M46.048,54.486c0,0-2.625,2.925-7.516,2.446
		c-4.89-0.479-5.812-3.666-5.711-4.695c0.13-1.33,0.875-2.08,2.462-1.925C37.857,50.565,37.947,56.939,46.048,54.486"/>
	<path clip-path="url(#SVGID_2_)" fill="#204395" d="M42.035,58.656c0,0-1.965,3.405-6.848,3.946
		c-4.885,0.54-6.444-2.388-6.558-3.417c-0.147-1.328,0.427-2.216,2.012-2.39C33.211,56.511,34.615,62.73,42.035,58.656"/>
	<path clip-path="url(#SVGID_2_)" fill="#204395" d="M38.936,63.637c0,0-1.209,3.74-5.872,5.291c-4.663,1.55-6.801-0.988-7.127-1.97
		c-0.421-1.268-0.046-2.255,1.468-2.758C29.859,63.383,32.532,69.172,38.936,63.637"/>
	<path clip-path="url(#SVGID_2_)" fill="#204395" d="M36.956,69.115c0,0-0.406,3.911-4.645,6.395
		c-4.239,2.485-6.857,0.448-7.38-0.445c-0.676-1.152-0.514-2.197,0.862-3.003C28.024,70.753,31.842,75.859,36.956,69.115"/>
	<path clip-path="url(#SVGID_2_)" fill="#204395" d="M36.154,74.998c0,0,0.431,3.908-3.186,7.233
		c-3.618,3.326-6.608,1.889-7.308,1.127c-0.904-0.983-0.967-2.038,0.207-3.117C27.771,78.49,32.583,82.672,36.154,74.998"/>
	<path clip-path="url(#SVGID_2_)" fill="#204395" d="M36.589,80.774c0,0,1.229,3.734-1.623,7.735
		c-2.852,4.002-6.075,3.214-6.917,2.613c-1.088-0.776-1.368-1.795-0.441-3.094C29.109,85.923,34.681,89.021,36.589,80.774"/>
	<path clip-path="url(#SVGID_2_)" fill="#204395" d="M38.229,86.385c0,0,1.98,3.395,0.024,7.904
		c-1.955,4.508-5.271,4.408-6.22,3.997c-1.226-0.533-1.711-1.472-1.077-2.935C31.986,92.98,38.082,94.849,38.229,86.385"/>
	<path clip-path="url(#SVGID_2_)" fill="#204395" d="M40.962,91.474c0,0,2.637,2.914,1.651,7.729
		c-0.985,4.813-4.25,5.399-5.264,5.191c-1.309-0.267-1.978-1.086-1.658-2.648C36.211,99.212,42.561,99.786,40.962,91.474"/>
	<path clip-path="url(#SVGID_2_)" fill="#204395" d="M44.803,96.001c0,0,3.195,2.292,3.251,7.206
		c0.057,4.913-3.011,6.176-4.046,6.188c-1.336,0.017-2.162-0.642-2.18-2.237C41.797,104.571,48.125,103.788,44.803,96.001"/>
	<path clip-path="url(#SVGID_2_)" fill="#204395" d="M49.427,99.561c0,0,3.601,1.577,4.679,6.37c1.077,4.794-1.66,6.669-2.669,6.896
		c-1.304,0.293-2.25-0.179-2.599-1.735C48.271,108.567,54.296,106.485,49.427,99.561"/>
	<path clip-path="url(#SVGID_2_)" fill="#204395" d="M54.581,102.041c0,0,3.847,0.809,5.881,5.282
		c2.032,4.473-0.265,6.865-1.206,7.294c-1.217,0.554-2.239,0.282-2.898-1.167C55.288,111.095,60.761,107.826,54.581,102.041"/>
	<path clip-path="url(#SVGID_2_)" fill="#204395" d="M60.452,103.46c0,0,3.931-0.038,6.88,3.893c2.948,3.93,1.22,6.763,0.392,7.383
		c-1.068,0.803-2.125,0.76-3.082-0.517C63.09,112.149,67.732,107.778,60.452,103.46"/>
	<path clip-path="url(#SVGID_2_)" fill="#204395" d="M66.221,103.605c0,0,3.838-0.848,7.532,2.393
		c3.695,3.241,2.585,6.367,1.904,7.146c-0.881,1.003-1.923,1.179-3.123,0.127C70.591,111.566,74.234,106.333,66.221,103.605"/>
	<path clip-path="url(#SVGID_2_)" fill="#204395" d="M71.783,102.593c0,0,3.589-1.604,7.861,0.824
		c4.271,2.428,3.816,5.714,3.305,6.612c-0.66,1.163-1.645,1.545-3.032,0.757C77.668,109.508,80.181,103.648,71.783,102.593"/>
	<path clip-path="url(#SVGID_2_)" fill="#204395" d="M77.25,100.359c0,0,3.171-2.323,7.859-0.85
		c4.687,1.475,4.934,4.782,4.624,5.769c-0.4,1.275-1.284,1.857-2.805,1.377C84.461,105.88,85.684,99.623,77.25,100.359"/>
	<path clip-path="url(#SVGID_2_)" fill="#204395" d="M82.053,97.087c0,0,2.62-2.931,7.511-2.46c4.891,0.472,5.818,3.657,5.719,4.687
		c-0.128,1.329-0.871,2.081-2.459,1.928C90.25,100.994,90.149,94.619,82.053,97.087"/>
	<path clip-path="url(#SVGID_2_)" fill="#204395" d="M86.026,92.951c0,0,1.965-3.405,6.849-3.944
		c4.884-0.539,6.443,2.389,6.557,3.416c0.147,1.329-0.427,2.217-2.013,2.392C94.849,95.099,93.447,88.878,86.026,92.951"/>
	<path clip-path="url(#SVGID_2_)" fill="#204395" d="M89.12,87.984c0,0,1.212-3.739,5.875-5.286c4.664-1.547,6.8,0.991,7.126,1.974
		c0.42,1.268,0.044,2.256-1.47,2.758C98.197,88.243,95.528,82.455,89.12,87.984"/>
	<path clip-path="url(#SVGID_2_)" fill="#204395" d="M91.11,82.479c0,0,0.404-3.91,4.642-6.396c4.238-2.487,6.858-0.45,7.381,0.441
		c0.676,1.153,0.514,2.197-0.861,3.004C100.042,80.837,96.222,75.731,91.11,82.479"/>
	<path clip-path="url(#SVGID_2_)" fill="#204395" d="M91.904,76.769c0,0-0.407-3.91,3.229-7.214c3.636-3.305,6.619-1.85,7.313-1.084
		c0.899,0.989,0.955,2.044-0.225,3.117C100.308,73.326,95.52,69.115,91.904,76.769"/>
	<path clip-path="url(#SVGID_2_)" fill="#204395" d="M91.525,71.117c0,0-1.189-3.746,1.704-7.717
		c2.894-3.971,6.108-3.149,6.944-2.54c1.08,0.787,1.349,1.809,0.409,3.098C99.06,66.048,93.52,62.892,91.525,71.117"/>
	<path clip-path="url(#SVGID_2_)" fill="#204395" d="M89.892,65.357c0,0-1.962-3.407,0.017-7.905c1.98-4.497,5.296-4.38,6.242-3.963
		c1.223,0.538,1.704,1.479,1.061,2.939C96.169,58.794,90.084,56.894,89.892,65.357"/>
	<path clip-path="url(#SVGID_2_)" fill="#204395" d="M87.124,60.162c0,0-2.633-2.919-1.642-7.731
		c0.992-4.813,4.258-5.394,5.271-5.185c1.308,0.27,1.976,1.09,1.654,2.65C91.884,52.43,85.536,51.848,87.124,60.162"/>
	<path clip-path="url(#SVGID_2_)" fill="#204395" d="M95.798,38.26c-8.367,0-11.335-5.666-11.335-10.517
		c0-3.551,1.091-11.81,11.207-11.81c4.953,0,7.478,1.939,8.723,3.565c1.364,1.781,1.526,3.559,1.532,3.633l-1.03,0.086l0.515-0.043
		l-0.515,0.045c-0.022-0.256-0.657-6.251-9.225-6.251c-8.851,0-10.173,6.751-10.173,10.775c0,1.584,0.497,9.482,10.302,9.482
		c0.947,0,9.113-0.25,9.43-8.792h-9.042v-1.034h10.086v0.517C106.271,28.975,105.978,38.26,95.798,38.26"/>
	<rect x="110.926" y="22.442" clip-path="url(#SVGID_2_)" fill="#204395" width="1.035" height="15.301"/>
	<path clip-path="url(#SVGID_2_)" fill="#204395" d="M111.946,28.683l-1.005-0.243c1.634-6.762,7.504-6.52,7.556-6.514l-0.056,1.032
		l0.028-0.516l-0.027,0.516C118.232,22.946,113.375,22.777,111.946,28.683"/>
	<path clip-path="url(#SVGID_2_)" fill="#204395" d="M128.943,38.26c-4.864,0-6.163-2.791-6.163-4.439V22.442h1.034v11.378
		c0,1.57,1.344,3.405,5.129,3.405c3.953,0,5.988-3.78,6.008-3.818l0.916,0.482C135.772,34.068,133.513,38.26,128.943,38.26"/>
	<rect x="134.891" y="22.442" clip-path="url(#SVGID_2_)" fill="#204395" width="1.034" height="15.474"/>
	<rect x="140.925" y="22.442" clip-path="url(#SVGID_2_)" fill="#204395" width="1.034" height="20.646"/>
	<path clip-path="url(#SVGID_2_)" fill="#204395" d="M148.555,38.26c-4.207,0-7.629-3.654-7.629-8.146s3.423-8.146,7.629-8.146
		s7.628,3.654,7.628,8.146S152.761,38.26,148.555,38.26 M148.555,23.002c-3.636,0-6.595,3.19-6.595,7.112
		c0,3.922,2.959,7.112,6.595,7.112s6.594-3.19,6.594-7.112C155.149,26.192,152.19,23.002,148.555,23.002"/>
	<path clip-path="url(#SVGID_2_)" fill="#204395" d="M167.48,38.26c-4.365,0-7.916-3.654-7.916-8.146s3.551-8.146,7.916-8.146
		s7.916,3.654,7.916,8.146S171.845,38.26,167.48,38.26 M167.48,23.002c-3.794,0-6.882,3.19-6.882,7.112
		c0,3.922,3.088,7.112,6.882,7.112c3.795,0,6.882-3.19,6.882-7.112C174.362,26.192,171.275,23.002,167.48,23.002"/>
	<path clip-path="url(#SVGID_2_)" fill="#204395" d="M144.589,108.115h-27.413V50.474h29.481c10.369,0,17.068,5.842,17.068,14.882
		c0,6.664-5.187,10.505-9.632,12.361c5.216,1.946,11.442,6.501,11.442,15.141C165.536,102.554,157.901,108.115,144.589,108.115
		 M119.762,105.529h24.827c15.176,0,18.362-6.892,18.362-12.672c0-10.355-10.707-13.737-14.396-13.737v-2.586
		c2.221,0,12.585-2.912,12.585-11.179c0-9.066-7.48-12.296-14.482-12.296h-26.896V105.529z"/>
	<rect x="118.47" y="76.535" clip-path="url(#SVGID_2_)" fill="#204395" width="30.516" height="2.586"/>
	<rect x="172.95" y="50.587" clip-path="url(#SVGID_2_)" fill="#204395" width="2.586" height="57.498"/>
	<path clip-path="url(#SVGID_2_)" fill="#204395" d="M201.829,109.378c-10.04,0-17.328-5.728-17.328-13.62V66.622h2.586v29.136
		c0,6.497,6.062,11.035,14.742,11.035c9.427,0,14.061-6.829,15.985-10.897L220.151,97
		C218.392,100.722,213.086,109.378,201.829,109.378"/>
	<rect x="217.689" y="66.622" clip-path="url(#SVGID_2_)" fill="#204395" width="2.586" height="41.463"/>
	<rect x="229.5" y="66.622" clip-path="url(#SVGID_2_)" fill="#204395" width="2.585" height="41.463"/>
	<path clip-path="url(#SVGID_2_)" fill="#204395" d="M290.531,108.085h-2.585V79.983c0-4.507-1.557-12.069-11.983-12.069
		c-11.16,0-14.51,10.282-14.541,10.386l-1.858,5.938l-0.661-6.187c-0.047-0.41-1.267-10.137-12.162-10.137
		c-4.625,0-8.489,1.969-11.487,5.85c-2.303,2.982-3.209,6.032-3.219,6.062l-2.484-0.719c0.041-0.138,4.128-13.779,17.19-13.779
		c8.658,0,12.286,5.263,13.766,8.944c2.151-3.614,6.793-8.944,15.457-8.944c13.519,0,14.568,11.217,14.568,14.654V108.085z"/>
	<rect x="258.938" y="77.915" clip-path="url(#SVGID_2_)" fill="#204395" width="2.586" height="30.17"/>
	<path clip-path="url(#SVGID_2_)" fill="#204395" d="M318.547,109.378c-11.788,0-21.378-9.821-21.378-21.896
		c0-12.074,9.59-21.895,21.378-21.895c11.789,0,21.38,9.821,21.38,21.895C339.927,99.557,330.336,109.378,318.547,109.378
		 M318.547,68.173c-10.361,0-18.792,8.662-18.792,19.31s8.431,19.311,18.792,19.311c10.363,0,18.793-8.663,18.793-19.311
		S328.91,68.173,318.547,68.173"/>
	<path clip-path="url(#SVGID_2_)" fill="#204395" d="M363.079,109.378c-8.046,0-17.637-2.736-17.637-15.774h2.587
		c0,8.874,4.924,13.189,15.05,13.189c12.262,0,13.586-5.848,13.586-8.362c0-7.074-5.769-8.589-14.567-10.096
		c-7.121-1.219-15.188-2.6-15.188-10.766c0-1.227,0.445-11.981,15.861-11.981c5.884,0,10.317,1.583,13.175,4.706
		c3.71,4.049,3.304,9.157,3.284,9.373l-2.576-0.228l1.289,0.113l-1.289-0.108c0.005-0.043,0.308-4.235-2.637-7.428
		c-2.351-2.549-6.135-3.842-11.246-3.842c-12.635,0-13.276,7.827-13.276,9.396c0,5.583,4.926,6.829,13.039,8.217
		c7.838,1.34,16.718,2.861,16.718,12.645C379.251,108.59,366.873,109.378,363.079,109.378"/>
</g>
<g>
	<path fill="#204395" d="M163.565,143.276c-0.685,0-1.314-0.128-1.888-0.382c-0.574-0.254-1.074-0.621-1.5-1.102
		c-0.425-0.479-0.756-1.07-0.994-1.772c-0.237-0.702-0.355-1.493-0.355-2.377c0-0.873,0.121-1.656,0.364-2.352
		c0.243-0.697,0.58-1.287,1.011-1.773c0.431-0.487,0.938-0.858,1.524-1.119c0.585-0.259,1.226-0.389,1.921-0.389
		c0.663,0,1.245,0.134,1.748,0.405c0.502,0.271,0.914,0.584,1.234,0.937l-0.745,0.894c-0.288-0.309-0.614-0.557-0.979-0.745
		c-0.364-0.187-0.778-0.281-1.242-0.281c-0.52,0-0.988,0.103-1.408,0.307c-0.42,0.205-0.778,0.497-1.077,0.879
		c-0.298,0.38-0.527,0.841-0.688,1.383c-0.16,0.541-0.24,1.148-0.24,1.822c0,0.685,0.08,1.3,0.24,1.847
		c0.161,0.547,0.384,1.014,0.671,1.4c0.287,0.386,0.638,0.685,1.052,0.895c0.414,0.21,0.88,0.315,1.399,0.315
		c0.53,0,0.994-0.109,1.392-0.324c0.397-0.215,0.772-0.517,1.126-0.903l0.761,0.862c-0.43,0.498-0.916,0.884-1.458,1.159
		C164.896,143.138,164.271,143.276,163.565,143.276z"/>
	<path fill="#204395" d="M169.612,143.077v-11.796h1.358v3.214l-0.05,1.656c0.387-0.363,0.79-0.676,1.21-0.935
		c0.419-0.261,0.912-0.39,1.474-0.39c0.851,0,1.472,0.265,1.864,0.795c0.392,0.529,0.588,1.314,0.588,2.352v5.104h-1.358v-4.921
		c0-0.763-0.122-1.311-0.364-1.648c-0.243-0.337-0.629-0.504-1.159-0.504c-0.42,0-0.79,0.104-1.11,0.313
		c-0.32,0.21-0.685,0.52-1.094,0.928v5.832H169.612z"/>
	<path fill="#204395" d="M180.148,133.369c-0.266,0-0.489-0.083-0.672-0.248c-0.182-0.166-0.272-0.375-0.272-0.63
		c0-0.265,0.091-0.478,0.272-0.639c0.183-0.159,0.406-0.239,0.672-0.239c0.265,0,0.488,0.08,0.671,0.239
		c0.182,0.161,0.272,0.374,0.272,0.639c0,0.255-0.09,0.464-0.272,0.63C180.637,133.286,180.414,133.369,180.148,133.369z
		 M179.453,143.077v-8.051h1.358v8.051H179.453z"/>
	<path fill="#204395" d="M185.798,143.276c-0.519,0-0.89-0.156-1.11-0.465c-0.222-0.309-0.332-0.762-0.332-1.357v-10.173h1.358
		v10.271c0,0.221,0.038,0.376,0.116,0.464c0.077,0.089,0.166,0.132,0.265,0.132c0.044,0,0.085,0,0.125,0
		c0.038,0,0.096-0.01,0.174-0.032l0.182,1.027c-0.088,0.043-0.193,0.076-0.314,0.1C186.14,143.265,185.985,143.276,185.798,143.276z
		"/>
	<path fill="#204395" d="M192.672,143.276c-0.542,0-1.046-0.098-1.516-0.29c-0.47-0.193-0.878-0.471-1.227-0.829
		c-0.347-0.357-0.621-0.798-0.82-1.317c-0.199-0.519-0.298-1.108-0.298-1.771s0.102-1.257,0.306-1.781s0.475-0.97,0.812-1.333
		c0.337-0.366,0.721-0.644,1.151-0.837c0.431-0.192,0.878-0.29,1.342-0.29c0.509,0,0.964,0.089,1.367,0.265
		c0.403,0.178,0.74,0.431,1.011,0.763c0.27,0.331,0.477,0.729,0.621,1.192c0.144,0.464,0.217,0.983,0.217,1.558
		c0,0.143-0.003,0.284-0.009,0.423c-0.006,0.137-0.02,0.256-0.042,0.355h-5.434c0.056,0.861,0.323,1.544,0.804,2.046
		c0.48,0.503,1.107,0.754,1.88,0.754c0.386,0,0.742-0.058,1.068-0.175c0.325-0.114,0.637-0.266,0.936-0.455l0.48,0.896
		c-0.354,0.22-0.745,0.413-1.175,0.579C193.715,143.193,193.225,143.276,192.672,143.276z M190.138,138.405h4.308
		c0-0.817-0.174-1.438-0.522-1.863s-0.837-0.638-1.467-0.638c-0.287,0-0.56,0.055-0.82,0.164c-0.26,0.112-0.494,0.274-0.704,0.49
		c-0.21,0.215-0.384,0.478-0.522,0.786C190.273,137.654,190.182,138.009,190.138,138.405z"/>
	<path fill="#204395" d="M215.186,147.219v-16.566h0.962v16.566H215.186z"/>
	<path fill="#204395" d="M232.397,143.077v-10.868h3.231c0.553,0,1.057,0.05,1.516,0.149c0.459,0.101,0.85,0.254,1.176,0.464
		c0.326,0.209,0.58,0.483,0.763,0.819c0.182,0.337,0.273,0.744,0.273,1.219c0,0.541-0.135,1.029-0.405,1.465
		c-0.271,0.438-0.666,0.738-1.186,0.903v0.067c0.663,0.12,1.199,0.396,1.608,0.828c0.407,0.43,0.612,1.021,0.612,1.772
		c0,0.53-0.1,0.994-0.299,1.392c-0.198,0.397-0.48,0.729-0.845,0.994c-0.364,0.265-0.801,0.463-1.309,0.597
		c-0.508,0.133-1.065,0.198-1.674,0.198H232.397z M233.773,136.831h1.607c0.928,0,1.595-0.16,2.005-0.479
		c0.408-0.321,0.612-0.757,0.612-1.309c0-0.631-0.213-1.077-0.639-1.343c-0.425-0.266-1.062-0.397-1.912-0.397h-1.674V136.831z
		 M233.773,141.984h1.889c0.939,0,1.668-0.174,2.188-0.522c0.519-0.349,0.777-0.887,0.777-1.615c0-0.674-0.253-1.168-0.761-1.482
		c-0.509-0.315-1.242-0.472-2.204-0.472h-1.889V141.984z"/>
	<path fill="#204395" d="M242.836,143.077v-8.051h1.125l0.116,1.458h0.051c0.274-0.509,0.609-0.912,1.002-1.21
		c0.392-0.299,0.819-0.447,1.284-0.447c0.319,0,0.606,0.056,0.861,0.165l-0.266,1.193c-0.132-0.044-0.254-0.078-0.364-0.1
		c-0.11-0.022-0.249-0.034-0.414-0.034c-0.343,0-0.698,0.14-1.069,0.415c-0.369,0.276-0.693,0.756-0.969,1.442v5.168H242.836z"/>
	<path fill="#204395" d="M250.87,143.276c-0.675,0-1.235-0.199-1.682-0.597c-0.447-0.397-0.671-0.961-0.671-1.69
		c0-0.883,0.392-1.56,1.177-2.029c0.784-0.469,2.037-0.797,3.761-0.986c0-0.253-0.025-0.502-0.075-0.745
		c-0.049-0.242-0.135-0.458-0.257-0.646c-0.122-0.188-0.29-0.34-0.506-0.455c-0.215-0.117-0.487-0.174-0.819-0.174
		c-0.464,0-0.9,0.088-1.309,0.265c-0.409,0.176-0.773,0.375-1.094,0.597l-0.53-0.944c0.375-0.243,0.834-0.479,1.375-0.705
		c0.542-0.226,1.137-0.339,1.789-0.339c0.983,0,1.695,0.301,2.138,0.903c0.441,0.602,0.662,1.404,0.662,2.41v4.937h-1.126
		l-0.116-0.961h-0.05c-0.387,0.32-0.801,0.593-1.243,0.82C251.853,143.163,251.377,143.276,250.87,143.276z M251.268,142.183
		c0.387,0,0.751-0.092,1.094-0.273c0.342-0.183,0.706-0.45,1.094-0.803v-2.237c-0.674,0.088-1.241,0.193-1.699,0.314
		c-0.459,0.122-0.828,0.267-1.109,0.431c-0.281,0.166-0.486,0.356-0.613,0.572c-0.127,0.215-0.19,0.45-0.19,0.704
		c0,0.465,0.138,0.795,0.414,0.994C250.533,142.083,250.87,142.183,251.268,142.183z"/>
	<path fill="#204395" d="M260.296,143.276c-0.574,0-1.12-0.105-1.639-0.315s-0.974-0.475-1.36-0.795l0.681-0.911
		c0.354,0.287,0.715,0.519,1.085,0.696c0.37,0.177,0.798,0.264,1.284,0.264c0.53,0,0.928-0.121,1.192-0.363
		c0.266-0.243,0.398-0.541,0.398-0.896c0-0.209-0.057-0.391-0.166-0.547c-0.111-0.154-0.252-0.289-0.422-0.405
		c-0.172-0.116-0.368-0.219-0.59-0.307c-0.22-0.088-0.44-0.177-0.662-0.265c-0.286-0.1-0.573-0.212-0.861-0.34
		c-0.287-0.127-0.544-0.281-0.77-0.465c-0.228-0.181-0.412-0.394-0.556-0.637s-0.215-0.536-0.215-0.878
		c0-0.32,0.063-0.622,0.19-0.903c0.126-0.281,0.309-0.524,0.546-0.729c0.238-0.204,0.528-0.364,0.87-0.48s0.729-0.174,1.16-0.174
		c0.507,0,0.974,0.089,1.398,0.265c0.426,0.178,0.794,0.393,1.104,0.647l-0.647,0.86c-0.274-0.209-0.562-0.381-0.861-0.514
		c-0.298-0.132-0.624-0.198-0.978-0.198c-0.508,0-0.88,0.116-1.117,0.348c-0.238,0.231-0.356,0.503-0.356,0.812
		c0,0.188,0.05,0.351,0.149,0.488c0.099,0.139,0.23,0.26,0.396,0.365c0.166,0.104,0.356,0.198,0.571,0.282
		c0.216,0.082,0.44,0.167,0.672,0.256c0.287,0.11,0.577,0.227,0.869,0.348c0.293,0.123,0.556,0.274,0.787,0.455
		c0.232,0.183,0.423,0.406,0.571,0.672c0.15,0.265,0.224,0.586,0.224,0.961c0,0.33-0.063,0.64-0.19,0.927
		c-0.126,0.288-0.315,0.542-0.563,0.763s-0.558,0.395-0.927,0.522C261.194,143.212,260.771,143.276,260.296,143.276z"/>
	<path fill="#204395" d="M266.658,133.369c-0.265,0-0.488-0.083-0.672-0.248c-0.183-0.166-0.272-0.375-0.272-0.63
		c0-0.265,0.09-0.478,0.272-0.639c0.184-0.159,0.407-0.239,0.672-0.239s0.488,0.08,0.67,0.239c0.184,0.161,0.274,0.374,0.274,0.639
		c0,0.255-0.091,0.464-0.274,0.63C267.146,133.286,266.923,133.369,266.658,133.369z M265.963,143.077v-8.051h1.357v8.051H265.963z"
		/>
	<path fill="#204395" d="M272.307,143.276c-0.519,0-0.889-0.156-1.11-0.465c-0.22-0.309-0.33-0.762-0.33-1.357v-10.173h1.357v10.271
		c0,0.221,0.039,0.376,0.117,0.464c0.076,0.089,0.165,0.132,0.265,0.132c0.043,0,0.084,0,0.124,0c0.038,0,0.097-0.01,0.174-0.032
		l0.184,1.027c-0.091,0.043-0.193,0.076-0.315,0.1C272.648,143.265,272.495,143.276,272.307,143.276z"/>
	<path fill="#204395" d="M292.649,147.219v-16.566h0.962v16.566H292.649z"/>
	<path fill="#204395" d="M309.863,143.077v-10.868h3.098c0.607,0,1.162,0.056,1.665,0.166c0.502,0.111,0.93,0.289,1.284,0.538
		c0.354,0.249,0.63,0.577,0.828,0.985c0.198,0.41,0.298,0.912,0.298,1.508c0,0.575-0.098,1.071-0.29,1.491
		c-0.193,0.42-0.467,0.768-0.819,1.044c-0.354,0.275-0.775,0.482-1.268,0.622c-0.492,0.138-1.035,0.205-1.633,0.205h-1.789v4.309
		H309.863z M311.237,137.644h1.624c0.95,0,1.653-0.18,2.112-0.538c0.458-0.359,0.688-0.925,0.688-1.699
		c0-0.783-0.24-1.327-0.721-1.631c-0.479-0.305-1.194-0.457-2.146-0.457h-1.558V137.644z"/>
	<path fill="#204395" d="M322.802,143.276c-0.542,0-1.046-0.098-1.516-0.29c-0.47-0.193-0.878-0.471-1.227-0.829
		c-0.348-0.357-0.62-0.798-0.82-1.317c-0.198-0.519-0.298-1.108-0.298-1.771s0.103-1.257,0.307-1.781s0.474-0.97,0.812-1.333
		c0.337-0.366,0.721-0.644,1.151-0.837c0.432-0.192,0.879-0.29,1.342-0.29c0.508,0,0.964,0.089,1.367,0.265
		c0.402,0.178,0.739,0.431,1.011,0.763c0.27,0.331,0.478,0.729,0.62,1.192c0.145,0.464,0.217,0.983,0.217,1.558
		c0,0.143-0.004,0.284-0.008,0.423c-0.007,0.137-0.021,0.256-0.042,0.355h-5.435c0.056,0.861,0.323,1.544,0.803,2.046
		c0.481,0.503,1.108,0.754,1.882,0.754c0.387,0,0.742-0.058,1.068-0.175c0.325-0.114,0.638-0.266,0.937-0.455l0.48,0.896
		c-0.354,0.22-0.746,0.413-1.177,0.579C323.845,143.193,323.354,143.276,322.802,143.276z M320.268,138.405h4.306
		c0-0.817-0.174-1.438-0.521-1.863c-0.349-0.425-0.836-0.638-1.465-0.638c-0.288,0-0.561,0.055-0.821,0.164
		c-0.259,0.112-0.494,0.274-0.703,0.49c-0.211,0.215-0.385,0.478-0.521,0.786C320.402,137.654,320.311,138.009,320.268,138.405z"/>
	<path fill="#204395" d="M328.583,143.077v-8.051h1.127l0.115,1.458h0.051c0.274-0.509,0.61-0.912,1.002-1.21
		c0.392-0.299,0.82-0.447,1.283-0.447c0.321,0,0.607,0.056,0.862,0.165l-0.265,1.193c-0.134-0.044-0.255-0.078-0.365-0.1
		c-0.11-0.022-0.248-0.034-0.415-0.034c-0.341,0-0.696,0.14-1.067,0.415c-0.371,0.276-0.693,0.756-0.97,1.442v5.168H328.583z"/>
	<path fill="#204395" d="M337.513,143.276c-0.862,0-1.489-0.265-1.88-0.796c-0.393-0.529-0.589-1.314-0.589-2.353v-5.102h1.375v4.92
		c0,0.762,0.12,1.312,0.355,1.647c0.238,0.338,0.622,0.506,1.152,0.506c0.42,0,0.79-0.106,1.109-0.323
		c0.32-0.215,0.675-0.561,1.062-1.035v-5.715h1.358v8.051h-1.127l-0.116-1.259h-0.05c-0.375,0.442-0.771,0.794-1.185,1.061
		C338.565,143.144,338.076,143.276,337.513,143.276z M338.076,133.584l-0.695-0.679l2.335-2.767l0.962,0.911L338.076,133.584z"/>
</g>
</svg>
