<?xml version="1.0" encoding="utf-8"?>
<!-- Generator: Adobe Illustrator 19.0.0, SVG Export Plug-In . SVG Version: 6.00 Build 0)  -->
<svg version="1.1" id="Capa_1" xmlns="http://www.w3.org/2000/svg" xmlns:xlink="http://www.w3.org/1999/xlink" x="0px" y="0px"
	 viewBox="-420 351 350 139.9" style="enable-background:new -420 351 350 139.9;" xml:space="preserve">
<style type="text/css">
	.st0{fill:#204293;}
	.st1{fill:#14945B;}
	.st2{fill:#204293;stroke:#204293;stroke-width:0.75;stroke-miterlimit:10;}
</style>
<g>
	<g>
		<path class="st0" d="M-361.9,411.3c0,0-3.1-2.4-3.1-7.2s3.1-6.1,4.1-6.1c1.4,0,2.1,0.6,2.1,2.2
			C-358.8,402.9-365,403.7-361.9,411.3z"/>
	</g>
	<g>
		<path class="st0" d="M-366.5,407.8c0,0-3.6-1.6-4.6-6.3c-1-4.7,1.7-6.6,2.7-6.8c1.2-0.2,2.2,0.2,2.6,1.7
			C-365.2,398.8-371.2,400.8-366.5,407.8z"/>
	</g>
	<g>
		<path class="st0" d="M-371.7,405.2c0,0-3.8-0.9-5.8-5.2c-2-4.5,0.2-6.8,1.2-7.2c1.2-0.5,2.2-0.2,2.8,1.1
			C-372.3,396.2-377.7,399.5-371.7,405.2z"/>
	</g>
	<g>
		<path class="st0" d="M-377.2,403.8c0,0-3.8,0-6.8-4c-2.8-4-1.1-6.7-0.4-7.3c1.1-0.7,2.1-0.7,3.1,0.5
			C-379.8,395.1-384.4,399.5-377.2,403.8z"/>
	</g>
	<g>
		<path class="st0" d="M-382.9,403.5c0,0-3.8,0.7-7.4-2.5s-2.5-6.3-1.9-7.1c0.9-1,1.9-1.1,3.1-0.1
			C-387.1,395.6-390.8,400.8-382.9,403.5z"/>
	</g>
	<g>
		<path class="st0" d="M-388.7,404.7c0,0-3.6,1.6-7.8-0.9c-4.2-2.4-3.7-5.7-3.2-6.6c0.6-1.1,1.6-1.5,3-0.7
			C-394.6,397.7-397,403.5-388.7,404.7z"/>
	</g>
	<g>
		<path class="st0" d="M-394.1,406.8c0,0-3.1,2.4-7.8,0.9c-4.7-1.5-4.8-4.7-4.6-5.7c0.4-1.2,1.2-1.9,2.7-1.4
			C-401.2,401.3-402.5,407.5-394.1,406.8z"/>
	</g>
	<g>
		<g>
			<path class="st1" d="M-393.6,408.4c0,0-3.6,1.5-4.8,6.2s1.5,6.7,2.5,6.9c1.2,0.4,2.2-0.1,2.6-1.6
				C-392.7,417.3-398.6,415.1-393.6,408.4z"/>
		</g>
		<g>
			<path class="st1" d="M-400.6,414.1c0,0-2.8,2.6-2.4,7.4s3.6,5.7,4.7,5.6c1.4-0.1,2.1-0.9,1.9-2.5
				C-396.7,422.1-403,422.1-400.6,414.1z"/>
		</g>
		<g>
			<path class="st1" d="M-405.3,421.9c0,0-1.9,3.5,0.4,7.8c2.1,4.3,5.4,4.1,6.3,3.7c1.2-0.6,1.6-1.5,1-3
				C-398.9,428-404.8,430.1-405.3,421.9z"/>
		</g>
		<g>
			<path class="st1" d="M-406.9,430.6c0,0-0.5,3.8,3,7.2c3.5,3.3,6.4,2,7.2,1.2c0.9-1,1-2-0.1-3.1
				C-398.8,434.3-403.6,438.3-406.9,430.6z"/>
		</g>
		<g>
			<path class="st1" d="M-405.6,439.5c0,0,0.9,3.8,5.3,5.8c4.5,2,6.8-0.4,7.2-1.2c0.5-1.2,0.2-2.2-1.2-2.8
				C-396.7,440.2-399.7,445.6-405.6,439.5z"/>
		</g>
		<g>
			<path class="st1" d="M-401.1,447.5c0,0,2.1,3.2,6.9,3.6s6.3-2.6,6.3-3.6c0.1-1.4-0.5-2.2-2.1-2.2
				C-392.6,445-393.7,451.2-401.1,447.5z"/>
		</g>
		<g>
			<path class="st1" d="M-394.3,453.4c0,0,3.1,2.4,7.8,1s4.9-4.6,4.7-5.6c-0.4-1.2-1.2-1.9-2.7-1.4
				C-387,448.1-386,454.3-394.3,453.4z"/>
		</g>
		<g>
			<path class="st1" d="M-385.9,456.5c0,0,3.7,1.1,7.7-1.7s3.1-6.1,2.5-6.8c-0.7-1.1-1.7-1.4-3.1-0.4
				C-380.8,449.1-377.7,454.5-385.9,456.5z"/>
		</g>
		<g>
			<path class="st1" d="M-376.9,456.6c0,0,3.8-0.1,6.6-4.2c2.7-4.1,0.9-6.7,0-7.3c-1.1-0.7-2.1-0.6-3,0.6
				C-374.6,448-369.9,452-376.9,456.6z"/>
		</g>
		<g>
			<path class="st1" d="M-368.3,453.6c0,0,3.6-1.5,4.7-6.2s-1.5-6.6-2.5-6.8c-1.2-0.4-2.2,0.1-2.6,1.6
				C-369.3,444.7-363.4,446.8-368.3,453.6z"/>
		</g>
		<g>
			<path class="st1" d="M-361.3,447.8c0,0,2.8-2.6,2.4-7.4s-3.7-5.7-4.7-5.6c-1.4,0.1-2,0.9-1.9,2.5
				C-365.4,439.9-359.1,439.9-361.3,447.8z"/>
		</g>
		<g>
			<path class="st1" d="M-356.7,440.2c0,0,1.7-3.5-0.4-7.8s-5.4-4.1-6.3-3.6c-1.2,0.6-1.6,1.5-0.9,3
				C-363.3,434-357.3,431.8-356.7,440.2z"/>
		</g>
		<g>
			<path class="st1" d="M-355.1,431.6c0,0,0.5-3.8-3-7.2s-6.4-2.1-7.2-1.4c-0.9,1-1,2,0.1,3.1C-363.3,427.9-358.4,424-355.1,431.6z"
				/>
		</g>
		<g>
			<path class="st1" d="M-356.6,422.5c0,0-0.9-3.8-5.3-5.7s-6.8,0.4-7.2,1.2c-0.5,1.2-0.2,2.2,1.2,2.8
				C-365.5,421.9-362.4,416.4-356.6,422.5z"/>
		</g>
		<g>
			<path class="st1" d="M-360.9,414.8c0,0-2.1-3.3-6.9-3.6c-4.8-0.2-6.3,2.6-6.3,3.6c-0.1,1.4,0.5,2.2,2.1,2.2
				C-369.4,417.2-368.3,411-360.9,414.8z"/>
		</g>
		<g>
			<path class="st1" d="M-367.8,408.7c0,0-3.1-2.4-7.8-1c-4.7,1.4-4.9,4.6-4.7,5.6c0.4,1.2,1.2,1.9,2.7,1.4
				C-375,414.1-376.1,407.9-367.8,408.7z"/>
		</g>
		<g>
			<path class="st1" d="M-376.1,405.7c0,0-3.7-1.2-7.7,1.6s-3.1,6.1-2.5,6.8c0.7,1.1,1.7,1.4,3.1,0.4
				C-381.2,413.1-384.3,407.5-376.1,405.7z"/>
		</g>
		<g>
			<path class="st1" d="M-385,405.4c0,0-3.8,0.1-6.6,4.2c-2.7,4.1-0.9,6.7,0,7.3c1.1,0.7,2.1,0.6,3-0.6
				C-387.3,414.2-392.1,410-385,405.4z"/>
		</g>
	</g>
	<g>
		<path class="st0" d="M-398.8,410c0,0-2.6,2.8-7.4,2.5c-4.8-0.5-5.7-3.6-5.7-4.6c0.1-1.4,0.9-2.1,2.5-1.9
			C-406.9,406.1-406.8,412.5-398.8,410z"/>
	</g>
	<g>
		<path class="st0" d="M-402.7,414.2c0,0-2,3.3-6.8,3.8s-6.3-2.4-6.4-3.3c-0.1-1.4,0.4-2.2,2-2.4
			C-411.5,412-410.1,418.1-402.7,414.2z"/>
	</g>
	<g>
		<path class="st0" d="M-405.8,419c0,0-1.2,3.7-5.8,5.2c-4.6,1.5-6.7-1-7.1-2c-0.4-1.2,0-2.2,1.5-2.7
			C-414.8,418.8-412.1,424.5-405.8,419z"/>
	</g>
	<g>
		<path class="st0" d="M-407.8,424.5c0,0-0.4,3.8-4.6,6.3s-6.8,0.5-7.3-0.5c-0.6-1.1-0.5-2.2,0.9-3
			C-416.6,426.1-412.9,431.1-407.8,424.5z"/>
	</g>
	<g>
		<path class="st0" d="M-408.5,430.3c0,0,0.4,3.8-3.1,7.2c-3.6,3.3-6.6,1.9-7.2,1.1c-0.9-1-1-2,0.2-3.1
			C-416.8,433.7-412.1,437.8-408.5,430.3z"/>
	</g>
	<g>
		<path class="st0" d="M-408.2,436c0,0,1.2,3.7-1.6,7.7s-5.9,3.2-6.8,2.6c-1.1-0.7-1.4-1.7-0.5-3.1C-415.6,441-410,444.1-408.2,436z
			"/>
	</g>
	<g>
		<path class="st0" d="M-406.6,441.5c0,0,2,3.3,0,7.8s-5.2,4.3-6.2,4c-1.2-0.5-1.7-1.5-1.1-2.8C-412.7,448-406.7,449.8-406.6,441.5z
			"/>
	</g>
	<g>
		<path class="st0" d="M-403.8,446.5c0,0,2.6,2.8,1.6,7.7c-1,4.7-4.2,5.3-5.2,5.1c-1.2-0.2-2-1.1-1.6-2.6
			C-408.5,454.1-402.2,454.8-403.8,446.5z"/>
	</g>
	<g>
		<path class="st0" d="M-400,451c0,0,3.1,2.2,3.2,7.1c0,4.8-3,6.1-4,6.1c-1.4,0-2.1-0.6-2.1-2.2C-403,459.5-396.8,458.7-400,451z"/>
	</g>
	<g>
		<path class="st0" d="M-395.4,454.5c0,0,3.6,1.6,4.6,6.3c1.1,4.7-1.6,6.6-2.6,6.8c-1.2,0.2-2.2-0.1-2.6-1.7
			C-396.7,463.4-390.7,461.3-395.4,454.5z"/>
	</g>
	<g>
		<path class="st0" d="M-390.3,457c0,0,3.8,0.7,5.8,5.2s-0.2,6.8-1.2,7.2c-1.2,0.5-2.2,0.2-2.8-1.1
			C-389.7,465.9-384.3,462.7-390.3,457z"/>
	</g>
	<g>
		<path class="st0" d="M-384.5,458.3c0,0,3.8,0,6.8,3.8s1.2,6.7,0.4,7.3c-1.1,0.7-2.1,0.7-3.1-0.5
			C-381.9,466.9-377.4,462.7-384.5,458.3z"/>
	</g>
	<g>
		<path class="st0" d="M-378.8,458.5c0,0,3.8-0.9,7.4,2.4s2.6,6.3,1.9,7.1c-0.9,1-1.9,1.1-3.1,0.1
			C-374.6,466.4-370.9,461.2-378.8,458.5z"/>
	</g>
	<g>
		<path class="st0" d="M-373.4,457.5c0,0,3.6-1.6,7.8,0.9c4.2,2.5,3.7,5.7,3.2,6.6c-0.6,1.1-1.6,1.5-3,0.7
			C-367.6,464.3-365.1,458.6-373.4,457.5z"/>
	</g>
	<g>
		<path class="st0" d="M-368,455.3c0,0,3.1-2.4,7.8-0.9s4.8,4.7,4.6,5.7c-0.4,1.2-1.2,1.9-2.7,1.4
			C-360.9,460.7-359.7,454.5-368,455.3z"/>
	</g>
	<g>
		<path class="st0" d="M-363.3,452c0,0,2.6-2.8,7.4-2.5c4.8,0.5,5.7,3.6,5.7,4.6c-0.1,1.4-0.9,2.1-2.5,1.9
			C-355.2,455.9-355.2,449.7-363.3,452z"/>
	</g>
	<g>
		<path class="st0" d="M-359.3,448c0,0,2-3.3,6.8-3.8s6.3,2.4,6.4,3.3c0.1,1.4-0.4,2.2-2,2.4C-350.6,450.1-352,444-359.3,448z"/>
	</g>
	<g>
		<path class="st0" d="M-356.3,443.1c0,0,1.2-3.7,5.8-5.2s6.7,1,7.1,2c0.4,1.2,0,2.2-1.5,2.7C-347.3,443.4-350,437.6-356.3,443.1z"
			/>
	</g>
	<g>
		<path class="st0" d="M-354.4,437.7c0,0,0.4-3.8,4.6-6.3s6.8-0.5,7.3,0.5c0.6,1.1,0.5,2.2-0.9,3
			C-345.6,436.1-349.3,431-354.4,437.7z"/>
	</g>
	<g>
		<path class="st0" d="M-353.5,432c0,0-0.4-3.8,3.2-7.2c3.6-3.2,6.6-1.9,7.2-1.1c0.9,1,1,2-0.2,3.1
			C-345.2,428.7-350,424.5-353.5,432z"/>
	</g>
	<g>
		<path class="st0" d="M-353.9,426.4c0,0-1.1-3.7,1.7-7.7s6.1-3.1,6.8-2.5c1.1,0.7,1.4,1.7,0.4,3.1
			C-346.4,421.5-352,418.3-353.9,426.4z"/>
	</g>
	<g>
		<path class="st0" d="M-355.6,420.7c0,0-2-3.3,0-7.8s5.2-4.3,6.2-4c1.2,0.5,1.7,1.5,1,2.8C-349.3,414.3-355.3,412.5-355.6,420.7z"
			/>
	</g>
	<g>
		<path class="st0" d="M-358.3,415.7c0,0-2.6-2.8-1.6-7.7c1-4.7,4.2-5.3,5.2-5.1c1.2,0.2,2,1.1,1.6,2.6
			C-353.6,408-359.8,407.4-358.3,415.7z"/>
	</g>
	<g>
		<path class="st2" d="M-349.7,394c-8.3,0-11.1-5.6-11.1-10.4c0-3.5,1.1-11.6,11-11.6c4.9,0,7.4,1.9,8.7,3.5
			c1.4,1.7,1.5,3.5,1.5,3.6l-1,0.1h0.5h-0.5c0-0.2-0.6-6.2-9.2-6.2c-8.8,0-10,6.7-10,10.6c0,1.6,0.5,9.4,10.1,9.4c1,0,9-0.2,9.3-8.7
			h-8.9v-1h9.9v0.5C-339.4,384.9-339.6,394-349.7,394z"/>
	</g>
	<g>
		<rect x="-334.8" y="378.4" class="st2" width="1" height="15.1"/>
	</g>
	<g>
		<path class="st2" d="M-333.8,384.5l-1-0.2c1.6-6.7,7.4-6.4,7.4-6.4v1v-0.5v0.5C-327.5,378.9-332.3,378.7-333.8,384.5z"/>
	</g>
	<g>
		<path class="st2" d="M-317,394c-4.8,0-6.1-2.7-6.1-4.5v-11.3h1v11.3c0,1.6,1.4,3.3,5.1,3.3c4,0,5.9-3.7,5.9-3.7l0.9,0.5
			C-310.2,389.8-312.4,394-317,394z"/>
	</g>
	<g>
		<rect x="-311.1" y="378.4" class="st2" width="1" height="15.2"/>
	</g>
	<g>
		<rect x="-305.1" y="378.4" class="st2" width="1" height="20.4"/>
	</g>
	<g>
		<path class="st2" d="M-297.6,394c-4.2,0-7.5-3.6-7.5-8s3.3-8,7.5-8s7.5,3.6,7.5,8S-293.5,394-297.6,394z M-297.6,378.9
			c-3.6,0-6.6,3.1-6.6,7.1s3,7.1,6.6,7.1s6.6-3.1,6.6-7.1S-294,378.9-297.6,378.9z"/>
	</g>
	<g>
		<path class="st2" d="M-278.9,394c-4.3,0-7.8-3.6-7.8-8s3.5-8,7.8-8s7.8,3.6,7.8,8S-274.7,394-278.9,394z M-278.9,378.9
			c-3.7,0-6.8,3.1-6.8,7.1s3.1,7.1,6.8,7.1c3.7,0,6.8-3.1,6.8-7.1S-275.2,378.9-278.9,378.9z"/>
	</g>
	<g>
		<path class="st0" d="M-301.5,462.9h-27.1V406h29.1c10.3,0,16.8,5.8,16.8,14.7c0,6.6-5.1,10.4-9.5,12.2c5.2,2,11.3,6.4,11.3,15
			C-280.9,457.5-288.4,462.9-301.5,462.9z M-326,460.4h24.5c15,0,18.2-6.8,18.2-12.5c0-10.3-10.5-13.6-14.2-13.6v-2.6
			c2.2,0,12.4-2.8,12.4-11c0-8.9-7.4-12.1-14.3-12.1h-26.5v51.8H-326z"/>
	</g>
	<g>
		<rect x="-327.3" y="431.8" class="st0" width="30.2" height="2.6"/>
	</g>
	<g>
		<rect x="-273.6" y="406.1" class="st0" width="2.6" height="56.8"/>
	</g>
	<g>
		<path class="st0" d="M-245,464.2c-9.9,0-17.1-5.7-17.1-13.5V422h2.6v28.8c0,6.4,5.9,10.9,14.6,10.9c9.3,0,13.9-6.7,15.8-10.8
			l2.4,1.1C-228.7,455.6-233.9,464.2-245,464.2z"/>
	</g>
	<g>
		<rect x="-229.4" y="422" class="st0" width="2.6" height="40.9"/>
	</g>
	<g>
		<rect x="-217.7" y="422" class="st0" width="2.6" height="40.9"/>
	</g>
	<g>
		<path class="st0" d="M-157.4,462.9h-2.6v-27.7c0-4.5-1.5-11.9-11.9-11.9c-11,0-14.3,10.1-14.3,10.3l-1.9,5.8l-0.6-6.1
			c0-0.4-1.2-10-12-10c-4.6,0-8.4,2-11.4,5.8c-2.2,3-3.2,5.9-3.2,5.9l-2.5-0.7c0-0.1,4.1-13.6,16.9-13.6c8.5,0,12.1,5.2,13.6,8.8
			c2.1-3.6,6.7-8.8,15.2-8.8c13.4,0,14.3,11.1,14.3,14.5v27.7L-157.4,462.9L-157.4,462.9z"/>
	</g>
	<g>
		<rect x="-188.7" y="433.1" class="st0" width="2.6" height="29.8"/>
	</g>
	<g>
		<path class="st0" d="M-129.8,464.2c-11.6,0-21.2-9.6-21.2-21.6s9.5-21.5,21.2-21.5s21.2,9.6,21.2,21.6S-118.2,464.2-129.8,464.2z
			 M-129.8,423.6c-10.3,0-18.6,8.5-18.6,19s8.3,19,18.6,19s18.6-8.5,18.6-19C-111.3,432.1-119.6,423.6-129.8,423.6z"/>
	</g>
	<g>
		<path class="st0" d="M-85.9,464.2c-7.9,0-17.4-2.7-17.4-15.6h2.6c0,8.8,4.8,13,14.8,13c12.1,0,13.4-5.8,13.4-8.3
			c0-6.9-5.7-8.5-14.3-10c-7.1-1.2-15-2.6-15-10.6c0-1.2,0.5-11.9,15.7-11.9c5.8,0,10.1,1.6,13,4.7c3.7,4,3.2,9,3.2,9.3l-2.6-0.2
			l1.2,0.1l-1.2-0.1c0,0,0.2-4.2-2.6-7.3c-2.4-2.5-6.1-3.8-11.1-3.8c-12.5,0-13.1,7.7-13.1,9.3c0,5.6,4.8,6.7,12.9,8.2
			c7.8,1.4,16.5,2.8,16.5,12.5C-69.8,463.4-82.1,464.2-85.9,464.2z"/>
	</g>
</g>
</svg>
