<?xml version="1.0" encoding="utf-8"?>
<!-- Generator: Adobe Illustrator 23.0.1, SVG Export Plug-In . SVG Version: 6.00 Build 0)  -->
<svg version="1.1" id="Capa_1" xmlns="http://www.w3.org/2000/svg" xmlns:xlink="http://www.w3.org/1999/xlink" x="0px" y="0px"
	 viewBox="0 0 300 161" style="enable-background:new 0 0 300 161;" xml:space="preserve">
<style type="text/css">
	.st0{clip-path:url(#SVGID_2_);fill:#204395;}
	.st1{clip-path:url(#SVGID_4_);fill:#204395;}
	.st2{clip-path:url(#SVGID_6_);fill:#204395;}
	.st3{clip-path:url(#SVGID_8_);fill:#204395;}
	.st4{clip-path:url(#SVGID_10_);fill:#204395;}
	.st5{clip-path:url(#SVGID_12_);fill:#204395;}
	.st6{clip-path:url(#SVGID_14_);fill:#204395;}
	.st7{clip-path:url(#SVGID_16_);fill:#14955B;}
	.st8{clip-path:url(#SVGID_18_);fill:#14955B;}
	.st9{clip-path:url(#SVGID_20_);fill:#14955B;}
	.st10{clip-path:url(#SVGID_22_);fill:#14955B;}
	.st11{clip-path:url(#SVGID_24_);fill:#14955B;}
	.st12{clip-path:url(#SVGID_26_);fill:#14955B;}
	.st13{clip-path:url(#SVGID_28_);fill:#14955B;}
	.st14{clip-path:url(#SVGID_30_);fill:#14955B;}
	.st15{clip-path:url(#SVGID_32_);fill:#14955B;}
	.st16{clip-path:url(#SVGID_34_);fill:#14955B;}
	.st17{clip-path:url(#SVGID_36_);fill:#14955B;}
	.st18{clip-path:url(#SVGID_38_);fill:#14955B;}
	.st19{clip-path:url(#SVGID_40_);fill:#14955B;}
	.st20{clip-path:url(#SVGID_42_);fill:#14955B;}
	.st21{clip-path:url(#SVGID_44_);fill:#14955B;}
	.st22{clip-path:url(#SVGID_46_);fill:#14955B;}
	.st23{clip-path:url(#SVGID_48_);fill:#14955B;}
	.st24{clip-path:url(#SVGID_50_);fill:#14955B;}
	.st25{clip-path:url(#SVGID_52_);fill:#204395;}
	.st26{clip-path:url(#SVGID_54_);fill:#204395;}
	.st27{clip-path:url(#SVGID_56_);fill:#204395;}
	.st28{clip-path:url(#SVGID_58_);fill:#204395;}
	.st29{clip-path:url(#SVGID_60_);fill:#204395;}
	.st30{clip-path:url(#SVGID_62_);fill:#204395;}
	.st31{clip-path:url(#SVGID_64_);fill:#204395;}
	.st32{clip-path:url(#SVGID_66_);fill:#204395;}
	.st33{clip-path:url(#SVGID_68_);fill:#204395;}
	.st34{clip-path:url(#SVGID_70_);fill:#204395;}
	.st35{clip-path:url(#SVGID_72_);fill:#204395;}
	.st36{clip-path:url(#SVGID_74_);fill:#204395;}
	.st37{clip-path:url(#SVGID_76_);fill:#204395;}
	.st38{clip-path:url(#SVGID_78_);fill:#204395;}
	.st39{clip-path:url(#SVGID_80_);fill:#204395;}
	.st40{clip-path:url(#SVGID_82_);fill:#204395;}
	.st41{clip-path:url(#SVGID_84_);fill:#204395;}
	.st42{clip-path:url(#SVGID_86_);fill:#204395;}
	.st43{clip-path:url(#SVGID_88_);fill:#204395;}
	.st44{clip-path:url(#SVGID_90_);fill:#204395;}
	.st45{clip-path:url(#SVGID_92_);fill:#204395;}
	.st46{clip-path:url(#SVGID_94_);fill:#204395;}
	.st47{clip-path:url(#SVGID_96_);fill:#204395;}
	.st48{clip-path:url(#SVGID_98_);fill:#204395;}
	.st49{clip-path:url(#SVGID_100_);fill:#204395;}
	.st50{clip-path:url(#SVGID_102_);fill:#204395;}
	.st51{clip-path:url(#SVGID_104_);fill:#204395;}
	.st52{clip-path:url(#SVGID_106_);fill:#204395;}
	.st53{clip-path:url(#SVGID_108_);fill:#204395;}
	.st54{clip-path:url(#SVGID_110_);fill:#204395;}
	.st55{clip-path:url(#SVGID_112_);fill:#204395;}
	.st56{clip-path:url(#SVGID_114_);fill:#204395;}
	.st57{clip-path:url(#SVGID_116_);fill:#204395;}
	.st58{clip-path:url(#SVGID_118_);fill:#204395;}
	.st59{clip-path:url(#SVGID_120_);fill:#204395;}
	.st60{clip-path:url(#SVGID_122_);fill:#204395;}
	.st61{clip-path:url(#SVGID_124_);fill:#204395;}
	.st62{clip-path:url(#SVGID_126_);fill:#204395;}
	.st63{clip-path:url(#SVGID_128_);fill:#204395;}
	.st64{clip-path:url(#SVGID_130_);fill:#204395;}
	.st65{clip-path:url(#SVGID_132_);fill:#204395;}
	.st66{fill:#204395;}
</style>
<g>
	<g>
		<g>
			<defs>
				<rect id="SVGID_1_" x="4.8" y="24" width="290.4" height="85.6"/>
			</defs>
			<clipPath id="SVGID_2_">
				<use xlink:href="#SVGID_1_"  style="overflow:visible;"/>
			</clipPath>
			<path class="st0" d="M53.1,58.3c0,0-2.6-2-2.6-6.2c0-4.2,2.5-5.3,3.4-5.3c1.1,0,1.8,0.6,1.8,1.9C55.6,51,50.4,51.6,53.1,58.3"/>
		</g>
		<g>
			<defs>
				<rect id="SVGID_3_" x="4.8" y="24" width="290.4" height="85.6"/>
			</defs>
			<clipPath id="SVGID_4_">
				<use xlink:href="#SVGID_3_"  style="overflow:visible;"/>
			</clipPath>
			<path class="st1" d="M49.3,55.2c0,0-2.9-1.4-3.8-5.5c-0.8-4.1,1.4-5.7,2.2-5.9c1.1-0.2,1.8,0.2,2.1,1.5
				C50.3,47.4,45.3,49.2,49.3,55.2"/>
		</g>
		<g>
			<defs>
				<rect id="SVGID_5_" x="4.8" y="24" width="290.4" height="85.6"/>
			</defs>
			<clipPath id="SVGID_6_">
				<use xlink:href="#SVGID_5_"  style="overflow:visible;"/>
			</clipPath>
			<path class="st2" d="M44.9,53c0,0-3.1-0.7-4.8-4.6c-1.7-3.9,0.2-5.9,1-6.3c1-0.5,1.8-0.2,2.4,1C44.4,45.2,39.9,48,44.9,53"/>
		</g>
		<g>
			<defs>
				<rect id="SVGID_7_" x="4.8" y="24" width="290.4" height="85.6"/>
			</defs>
			<clipPath id="SVGID_8_">
				<use xlink:href="#SVGID_7_"  style="overflow:visible;"/>
			</clipPath>
			<path class="st3" d="M40.2,51.7c0,0-3.2,0-5.6-3.4c-2.4-3.4-1-5.8-0.3-6.4c0.9-0.7,1.7-0.6,2.5,0.5C38.1,44.2,34.3,48,40.2,51.7"
				/>
		</g>
		<g>
			<defs>
				<rect id="SVGID_9_" x="4.8" y="24" width="290.4" height="85.6"/>
			</defs>
			<clipPath id="SVGID_10_">
				<use xlink:href="#SVGID_9_"  style="overflow:visible;"/>
			</clipPath>
			<path class="st4" d="M35.6,51.6c0,0-3.1,0.7-6.1-2.1c-3-2.8-2.1-5.5-1.5-6.2c0.7-0.9,1.6-1,2.6-0.1C32.1,44.7,29,49.1,35.6,51.6"
				/>
		</g>
		<g>
			<defs>
				<rect id="SVGID_11_" x="4.8" y="24" width="290.4" height="85.6"/>
			</defs>
			<clipPath id="SVGID_12_">
				<use xlink:href="#SVGID_11_"  style="overflow:visible;"/>
			</clipPath>
			<path class="st5" d="M30.8,52.5c0,0-2.9,1.4-6.4-0.7c-3.5-2.1-3.1-4.9-2.7-5.7c0.5-1,1.3-1.3,2.5-0.7
				C26,46.5,23.9,51.5,30.8,52.5"/>
		</g>
		<g>
			<defs>
				<rect id="SVGID_13_" x="4.8" y="24" width="290.4" height="85.6"/>
			</defs>
			<clipPath id="SVGID_14_">
				<use xlink:href="#SVGID_13_"  style="overflow:visible;"/>
			</clipPath>
			<path class="st6" d="M26.3,54.4c0,0-2.6,2-6.4,0.7c-3.8-1.3-4-4.1-3.8-5c0.3-1.1,1.1-1.6,2.3-1.2C20.4,49.6,19.4,55,26.3,54.4"/>
		</g>
		<g>
			<defs>
				<rect id="SVGID_15_" x="4.8" y="24" width="290.4" height="85.6"/>
			</defs>
			<clipPath id="SVGID_16_">
				<use xlink:href="#SVGID_15_"  style="overflow:visible;"/>
			</clipPath>
			<path class="st7" d="M26.7,55.7c0,0-3,1.3-4,5.4c-1,4.1,1.2,5.8,2,6c1.1,0.3,1.8-0.1,2.2-1.4C27.5,63.5,22.6,61.6,26.7,55.7"/>
		</g>
		<g>
			<defs>
				<rect id="SVGID_17_" x="4.8" y="24" width="290.4" height="85.6"/>
			</defs>
			<clipPath id="SVGID_18_">
				<use xlink:href="#SVGID_17_"  style="overflow:visible;"/>
			</clipPath>
			<path class="st8" d="M20.9,60.7c0,0-2.4,2.3-2,6.5c0.4,4.2,3,5,3.9,4.9c1.1-0.1,1.7-0.8,1.6-2.1C24.1,67.7,18.9,67.7,20.9,60.7"
				/>
		</g>
		<g>
			<defs>
				<rect id="SVGID_19_" x="4.8" y="24" width="290.4" height="85.6"/>
			</defs>
			<clipPath id="SVGID_20_">
				<use xlink:href="#SVGID_19_"  style="overflow:visible;"/>
			</clipPath>
			<path class="st9" d="M17,67.4c0,0-1.5,3,0.3,6.8c1.8,3.8,4.5,3.6,5.2,3.2c1-0.5,1.3-1.3,0.8-2.6C22.4,72.9,17.5,74.7,17,67.4"/>
		</g>
		<g>
			<defs>
				<rect id="SVGID_21_" x="4.8" y="24" width="290.4" height="85.6"/>
			</defs>
			<clipPath id="SVGID_22_">
				<use xlink:href="#SVGID_21_"  style="overflow:visible;"/>
			</clipPath>
			<path class="st10" d="M15.6,75.2c0,0-0.4,3.4,2.5,6.3c2.9,2.9,5.4,1.8,6,1.1c0.8-0.8,0.8-1.7-0.1-2.7
				C22.4,78.4,18.4,81.9,15.6,75.2"/>
		</g>
		<g>
			<defs>
				<rect id="SVGID_23_" x="4.8" y="24" width="290.4" height="85.6"/>
			</defs>
			<clipPath id="SVGID_24_">
				<use xlink:href="#SVGID_23_"  style="overflow:visible;"/>
			</clipPath>
			<path class="st11" d="M16.8,83c0,0,0.7,3.3,4.4,5c3.7,1.7,5.6-0.3,6-1.1c0.4-1.1,0.2-1.9-1-2.5C24.2,83.5,21.6,88.2,16.8,83"/>
		</g>
		<g>
			<defs>
				<rect id="SVGID_25_" x="4.8" y="24" width="290.4" height="85.6"/>
			</defs>
			<clipPath id="SVGID_26_">
				<use xlink:href="#SVGID_25_"  style="overflow:visible;"/>
			</clipPath>
			<path class="st12" d="M20.5,89.8c0,0,1.7,2.9,5.7,3.1c4,0.3,5.2-2.3,5.2-3.2c0.1-1.1-0.4-1.9-1.7-2
				C27.6,87.7,26.7,93.1,20.5,89.8"/>
		</g>
		<g>
			<defs>
				<rect id="SVGID_27_" x="4.8" y="24" width="290.4" height="85.6"/>
			</defs>
			<clipPath id="SVGID_28_">
				<use xlink:href="#SVGID_27_"  style="overflow:visible;"/>
			</clipPath>
			<path class="st13" d="M26.1,95c0,0,2.6,2.1,6.4,0.9c3.9-1.2,4.1-4,3.9-4.9c-0.3-1.1-1-1.6-2.3-1.2C32.2,90.4,33,95.8,26.1,95"/>
		</g>
		<g>
			<defs>
				<rect id="SVGID_29_" x="4.8" y="24" width="290.4" height="85.6"/>
			</defs>
			<clipPath id="SVGID_30_">
				<use xlink:href="#SVGID_29_"  style="overflow:visible;"/>
			</clipPath>
			<path class="st14" d="M33.2,97.8c0,0,3.1,1,6.3-1.5c3.2-2.5,2.6-5.3,2.1-6c-0.6-0.9-1.5-1.2-2.5-0.3C37.3,91.3,39.9,96,33.2,97.8
				"/>
		</g>
		<g>
			<defs>
				<rect id="SVGID_31_" x="4.8" y="24" width="290.4" height="85.6"/>
			</defs>
			<clipPath id="SVGID_32_">
				<use xlink:href="#SVGID_31_"  style="overflow:visible;"/>
			</clipPath>
			<path class="st15" d="M40.6,97.8c0,0,3.2-0.2,5.4-3.7c2.2-3.5,0.7-5.9,0-6.4c-0.9-0.6-1.8-0.6-2.5,0.6
				C42.4,90.2,46.4,93.8,40.6,97.8"/>
		</g>
		<g>
			<defs>
				<rect id="SVGID_33_" x="4.8" y="24" width="290.4" height="85.6"/>
			</defs>
			<clipPath id="SVGID_34_">
				<use xlink:href="#SVGID_33_"  style="overflow:visible;"/>
			</clipPath>
			<path class="st16" d="M47.7,95.2c0,0,3-1.3,3.9-5.4c0.9-4.1-1.3-5.8-2.1-6c-1.1-0.3-1.8,0.1-2.2,1.5
				C46.9,87.5,51.8,89.3,47.7,95.2"/>
		</g>
		<g>
			<defs>
				<rect id="SVGID_35_" x="4.8" y="24" width="290.4" height="85.6"/>
			</defs>
			<clipPath id="SVGID_36_">
				<use xlink:href="#SVGID_35_"  style="overflow:visible;"/>
			</clipPath>
			<path class="st17" d="M53.5,90.2c0,0,2.4-2.3,1.9-6.5c-0.4-4.2-3.1-5-3.9-4.9c-1.1,0.1-1.7,0.8-1.5,2.1
				C50.2,83.2,55.4,83.2,53.5,90.2"/>
		</g>
		<g>
			<defs>
				<rect id="SVGID_37_" x="4.8" y="24" width="290.4" height="85.6"/>
			</defs>
			<clipPath id="SVGID_38_">
				<use xlink:href="#SVGID_37_"  style="overflow:visible;"/>
			</clipPath>
			<path class="st18" d="M57.3,83.4c0,0,1.5-3-0.3-6.8c-1.8-3.8-4.5-3.6-5.3-3.2c-1,0.5-1.3,1.3-0.8,2.6
				C51.9,78,56.8,76.2,57.3,83.4"/>
		</g>
		<g>
			<defs>
				<rect id="SVGID_39_" x="4.8" y="24" width="290.4" height="85.6"/>
			</defs>
			<clipPath id="SVGID_40_">
				<use xlink:href="#SVGID_39_"  style="overflow:visible;"/>
			</clipPath>
			<path class="st19" d="M58.6,76c0,0,0.4-3.4-2.4-6.3c-2.9-3-5.4-1.8-6-1.2c-0.8,0.8-0.8,1.7,0.1,2.7C51.9,72.8,55.9,69.3,58.6,76"
				/>
		</g>
		<g>
			<defs>
				<rect id="SVGID_41_" x="4.8" y="24" width="290.4" height="85.6"/>
			</defs>
			<clipPath id="SVGID_42_">
				<use xlink:href="#SVGID_41_"  style="overflow:visible;"/>
			</clipPath>
			<path class="st20" d="M57.4,68.1c0,0-0.7-3.3-4.4-5c-3.7-1.7-5.6,0.3-6,1.1c-0.4,1.1-0.2,1.9,1,2.5C50,67.5,52.6,62.8,57.4,68.1"
				/>
		</g>
		<g>
			<defs>
				<rect id="SVGID_43_" x="4.8" y="24" width="290.4" height="85.6"/>
			</defs>
			<clipPath id="SVGID_44_">
				<use xlink:href="#SVGID_43_"  style="overflow:visible;"/>
			</clipPath>
			<path class="st21" d="M53.9,61.3c0,0-1.7-2.9-5.7-3.2c-4-0.3-5.2,2.3-5.3,3.1c-0.1,1.1,0.4,1.9,1.7,2
				C46.7,63.4,47.7,58.1,53.9,61.3"/>
		</g>
		<g>
			<defs>
				<rect id="SVGID_45_" x="4.8" y="24" width="290.4" height="85.6"/>
			</defs>
			<clipPath id="SVGID_46_">
				<use xlink:href="#SVGID_45_"  style="overflow:visible;"/>
			</clipPath>
			<path class="st22" d="M48.1,56.1c0,0-2.6-2.1-6.4-0.9c-3.9,1.2-4.1,4-3.9,4.9c0.3,1.1,1,1.6,2.3,1.2
				C42.1,60.7,41.2,55.3,48.1,56.1"/>
		</g>
		<g>
			<defs>
				<rect id="SVGID_47_" x="4.8" y="24" width="290.4" height="85.6"/>
			</defs>
			<clipPath id="SVGID_48_">
				<use xlink:href="#SVGID_47_"  style="overflow:visible;"/>
			</clipPath>
			<path class="st23" d="M41.2,53.3c0,0-3.1-1-6.3,1.4c-3.3,2.5-2.6,5.3-2.1,6c0.6,0.9,1.5,1.2,2.5,0.4C37.1,59.8,34.5,55,41.2,53.3
				"/>
		</g>
		<g>
			<defs>
				<rect id="SVGID_49_" x="4.8" y="24" width="290.4" height="85.6"/>
			</defs>
			<clipPath id="SVGID_50_">
				<use xlink:href="#SVGID_49_"  style="overflow:visible;"/>
			</clipPath>
			<path class="st24" d="M33.8,53.2c0,0-3.2,0.1-5.5,3.6c-2.3,3.5-0.7,5.9,0,6.4c0.9,0.6,1.8,0.6,2.5-0.6C32,60.8,28,57.2,33.8,53.2
				"/>
		</g>
		<g>
			<defs>
				<rect id="SVGID_51_" x="4.8" y="24" width="290.4" height="85.6"/>
			</defs>
			<clipPath id="SVGID_52_">
				<use xlink:href="#SVGID_51_"  style="overflow:visible;"/>
			</clipPath>
			<path class="st25" d="M22.4,57.2c0,0-2.1,2.5-6.2,2.1c-4-0.4-4.8-3.2-4.7-4c0.1-1.1,0.7-1.8,2-1.7C15.7,53.8,15.8,59.3,22.4,57.2
				"/>
		</g>
		<g>
			<defs>
				<rect id="SVGID_53_" x="4.8" y="24" width="290.4" height="85.6"/>
			</defs>
			<clipPath id="SVGID_54_">
				<use xlink:href="#SVGID_53_"  style="overflow:visible;"/>
			</clipPath>
			<path class="st26" d="M19.1,60.8c0,0-1.6,2.9-5.6,3.4c-4,0.5-5.3-2.1-5.4-2.9c-0.1-1.1,0.3-1.9,1.6-2.1
				C11.9,58.9,13,64.3,19.1,60.8"/>
		</g>
		<g>
			<defs>
				<rect id="SVGID_55_" x="4.8" y="24" width="290.4" height="85.6"/>
			</defs>
			<clipPath id="SVGID_56_">
				<use xlink:href="#SVGID_55_"  style="overflow:visible;"/>
			</clipPath>
			<path class="st27" d="M16.6,65.1c0,0-1,3.2-4.8,4.6c-3.8,1.3-5.6-0.9-5.8-1.7c-0.3-1.1,0-1.9,1.2-2.4
				C9.2,64.8,11.3,69.8,16.6,65.1"/>
		</g>
		<g>
			<defs>
				<rect id="SVGID_57_" x="4.8" y="24" width="290.4" height="85.6"/>
			</defs>
			<clipPath id="SVGID_58_">
				<use xlink:href="#SVGID_57_"  style="overflow:visible;"/>
			</clipPath>
			<path class="st28" d="M15,69.8c0,0-0.3,3.4-3.8,5.5c-3.5,2.1-5.6,0.4-6-0.4c-0.6-1-0.4-1.9,0.7-2.6C7.7,71.2,10.8,75.6,15,69.8"
				/>
		</g>
		<g>
			<defs>
				<rect id="SVGID_59_" x="4.8" y="24" width="290.4" height="85.6"/>
			</defs>
			<clipPath id="SVGID_60_">
				<use xlink:href="#SVGID_59_"  style="overflow:visible;"/>
			</clipPath>
			<path class="st29" d="M14.3,74.8c0,0,0.4,3.4-2.6,6.2c-3,2.9-5.4,1.6-6,1c-0.7-0.8-0.8-1.8,0.2-2.7C7.4,77.8,11.4,81.4,14.3,74.8
				"/>
		</g>
		<g>
			<defs>
				<rect id="SVGID_61_" x="4.8" y="24" width="290.4" height="85.6"/>
			</defs>
			<clipPath id="SVGID_62_">
				<use xlink:href="#SVGID_61_"  style="overflow:visible;"/>
			</clipPath>
			<path class="st30" d="M14.7,79.8c0,0,1,3.2-1.3,6.7c-2.3,3.4-5,2.8-5.7,2.3c-0.9-0.7-1.1-1.5-0.4-2.7
				C8.5,84.2,13.1,86.9,14.7,79.8"/>
		</g>
		<g>
			<defs>
				<rect id="SVGID_63_" x="4.8" y="24" width="290.4" height="85.6"/>
			</defs>
			<clipPath id="SVGID_64_">
				<use xlink:href="#SVGID_63_"  style="overflow:visible;"/>
			</clipPath>
			<path class="st31" d="M16,84.6c0,0,1.6,2.9,0,6.8c-1.6,3.9-4.3,3.8-5.1,3.4c-1-0.5-1.4-1.3-0.9-2.5C10.9,90.3,15.9,91.9,16,84.6"
				/>
		</g>
		<g>
			<defs>
				<rect id="SVGID_65_" x="4.8" y="24" width="290.4" height="85.6"/>
			</defs>
			<clipPath id="SVGID_66_">
				<use xlink:href="#SVGID_65_"  style="overflow:visible;"/>
			</clipPath>
			<path class="st32" d="M18.2,89c0,0,2.2,2.5,1.4,6.7c-0.8,4.1-3.5,4.6-4.3,4.5c-1.1-0.2-1.6-0.9-1.4-2.3
				C14.4,95.7,19.6,96.2,18.2,89"/>
		</g>
		<g>
			<defs>
				<rect id="SVGID_67_" x="4.8" y="24" width="290.4" height="85.6"/>
			</defs>
			<clipPath id="SVGID_68_">
				<use xlink:href="#SVGID_67_"  style="overflow:visible;"/>
			</clipPath>
			<path class="st33" d="M21.4,92.9c0,0,2.6,2,2.7,6.2c0,4.2-2.5,5.3-3.3,5.3c-1.1,0-1.8-0.6-1.8-1.9
				C18.9,100.3,24.1,99.6,21.4,92.9"/>
		</g>
		<g>
			<defs>
				<rect id="SVGID_69_" x="4.8" y="24" width="290.4" height="85.6"/>
			</defs>
			<clipPath id="SVGID_70_">
				<use xlink:href="#SVGID_69_"  style="overflow:visible;"/>
			</clipPath>
			<path class="st34" d="M25.2,96c0,0,2.9,1.4,3.8,5.5c0.9,4.1-1.4,5.7-2.2,5.9c-1.1,0.3-1.8-0.2-2.1-1.5
				C24.2,103.7,29.2,102,25.2,96"/>
		</g>
		<g>
			<defs>
				<rect id="SVGID_71_" x="4.8" y="24" width="290.4" height="85.6"/>
			</defs>
			<clipPath id="SVGID_72_">
				<use xlink:href="#SVGID_71_"  style="overflow:visible;"/>
			</clipPath>
			<path class="st35" d="M29.4,98.1c0,0,3.1,0.7,4.8,4.5c1.7,3.9-0.2,5.9-1,6.3c-1,0.5-1.8,0.2-2.4-1C30,105.9,34.5,103.1,29.4,98.1
				"/>
		</g>
		<g>
			<defs>
				<rect id="SVGID_73_" x="4.8" y="24" width="290.4" height="85.6"/>
			</defs>
			<clipPath id="SVGID_74_">
				<use xlink:href="#SVGID_73_"  style="overflow:visible;"/>
			</clipPath>
			<path class="st36" d="M34.2,99.3c0,0,3.2,0,5.6,3.4c2.4,3.4,1,5.8,0.3,6.4c-0.9,0.7-1.7,0.7-2.5-0.4
				C36.4,106.8,40.2,103.1,34.2,99.3"/>
		</g>
		<g>
			<defs>
				<rect id="SVGID_75_" x="4.8" y="24" width="290.4" height="85.6"/>
			</defs>
			<clipPath id="SVGID_76_">
				<use xlink:href="#SVGID_75_"  style="overflow:visible;"/>
			</clipPath>
			<path class="st37" d="M38.9,99.5c0,0,3.1-0.7,6.2,2.1c3,2.8,2.1,5.5,1.6,6.2c-0.7,0.9-1.6,1-2.6,0.1
				C42.5,106.3,45.5,101.8,38.9,99.5"/>
		</g>
		<g>
			<defs>
				<rect id="SVGID_77_" x="4.8" y="24" width="290.4" height="85.6"/>
			</defs>
			<clipPath id="SVGID_78_">
				<use xlink:href="#SVGID_77_"  style="overflow:visible;"/>
			</clipPath>
			<path class="st38" d="M43.5,98.6c0,0,2.9-1.4,6.4,0.7c3.5,2.1,3.1,4.9,2.7,5.7c-0.5,1-1.3,1.3-2.5,0.7
				C48.3,104.6,50.4,99.5,43.5,98.6"/>
		</g>
		<g>
			<defs>
				<rect id="SVGID_79_" x="4.8" y="24" width="290.4" height="85.6"/>
			</defs>
			<clipPath id="SVGID_80_">
				<use xlink:href="#SVGID_79_"  style="overflow:visible;"/>
			</clipPath>
			<path class="st39" d="M48,96.7c0,0,2.6-2,6.4-0.7c3.8,1.3,4,4.1,3.8,5c-0.3,1.1-1.1,1.6-2.3,1.2C53.9,101.4,54.9,96,48,96.7"/>
		</g>
		<g>
			<defs>
				<rect id="SVGID_81_" x="4.8" y="24" width="290.4" height="85.6"/>
			</defs>
			<clipPath id="SVGID_82_">
				<use xlink:href="#SVGID_81_"  style="overflow:visible;"/>
			</clipPath>
			<path class="st40" d="M51.9,93.9c0,0,2.1-2.5,6.1-2.1c4,0.4,4.8,3.1,4.7,4c-0.1,1.1-0.7,1.8-2,1.7C58.6,97.2,58.5,91.7,51.9,93.9
				"/>
		</g>
		<g>
			<defs>
				<rect id="SVGID_83_" x="4.8" y="24" width="290.4" height="85.6"/>
			</defs>
			<clipPath id="SVGID_84_">
				<use xlink:href="#SVGID_83_"  style="overflow:visible;"/>
			</clipPath>
			<path class="st41" d="M55.1,90.3c0,0,1.6-2.9,5.6-3.4s5.3,2.1,5.4,2.9c0.1,1.1-0.3,1.9-1.6,2.1C62.4,92.1,61.2,86.8,55.1,90.3"/>
		</g>
		<g>
			<defs>
				<rect id="SVGID_85_" x="4.8" y="24" width="290.4" height="85.6"/>
			</defs>
			<clipPath id="SVGID_86_">
				<use xlink:href="#SVGID_85_"  style="overflow:visible;"/>
			</clipPath>
			<path class="st42" d="M57.7,86c0,0,1-3.2,4.8-4.6c3.8-1.3,5.6,0.9,5.8,1.7c0.3,1.1,0,1.9-1.2,2.4C65.1,86.2,62.9,81.3,57.7,86"/>
		</g>
		<g>
			<defs>
				<rect id="SVGID_87_" x="4.8" y="24" width="290.4" height="85.6"/>
			</defs>
			<clipPath id="SVGID_88_">
				<use xlink:href="#SVGID_87_"  style="overflow:visible;"/>
			</clipPath>
			<path class="st43" d="M59.3,81.3c0,0,0.3-3.4,3.8-5.5c3.5-2.1,5.6-0.4,6,0.4c0.6,1,0.4,1.9-0.7,2.6
				C66.6,79.9,63.5,75.5,59.3,81.3"/>
		</g>
		<g>
			<defs>
				<rect id="SVGID_89_" x="4.8" y="24" width="290.4" height="85.6"/>
			</defs>
			<clipPath id="SVGID_90_">
				<use xlink:href="#SVGID_89_"  style="overflow:visible;"/>
			</clipPath>
			<path class="st44" d="M59.9,76.4c0,0-0.3-3.4,2.6-6.2c3-2.8,5.4-1.6,6-0.9c0.7,0.9,0.8,1.8-0.2,2.7
				C66.8,73.4,62.9,69.8,59.9,76.4"/>
		</g>
		<g>
			<defs>
				<rect id="SVGID_91_" x="4.8" y="24" width="290.4" height="85.6"/>
			</defs>
			<clipPath id="SVGID_92_">
				<use xlink:href="#SVGID_91_"  style="overflow:visible;"/>
			</clipPath>
			<path class="st45" d="M59.6,71.5c0,0-1-3.2,1.4-6.6c2.4-3.4,5-2.7,5.7-2.2c0.9,0.7,1.1,1.6,0.3,2.7
				C65.8,67.1,61.3,64.4,59.6,71.5"/>
		</g>
		<g>
			<defs>
				<rect id="SVGID_93_" x="4.8" y="24" width="290.4" height="85.6"/>
			</defs>
			<clipPath id="SVGID_94_">
				<use xlink:href="#SVGID_93_"  style="overflow:visible;"/>
			</clipPath>
			<path class="st46" d="M58.3,66.5c0,0-1.6-2.9,0-6.8c1.6-3.9,4.3-3.8,5.1-3.4c1,0.5,1.4,1.3,0.9,2.5
				C63.4,60.9,58.5,59.2,58.3,66.5"/>
		</g>
		<g>
			<defs>
				<rect id="SVGID_95_" x="4.8" y="24" width="290.4" height="85.6"/>
			</defs>
			<clipPath id="SVGID_96_">
				<use xlink:href="#SVGID_95_"  style="overflow:visible;"/>
			</clipPath>
			<path class="st47" d="M56,62.1c0,0-2.2-2.5-1.3-6.7c0.8-4.1,3.5-4.6,4.3-4.5c1.1,0.2,1.6,0.9,1.4,2.3
				C59.9,55.4,54.7,54.9,56,62.1"/>
		</g>
		<g>
			<defs>
				<rect id="SVGID_97_" x="4.8" y="24" width="290.4" height="85.6"/>
			</defs>
			<clipPath id="SVGID_98_">
				<use xlink:href="#SVGID_97_"  style="overflow:visible;"/>
			</clipPath>
			<path class="st48" d="M63.1,43.2c-6.8,0-9.3-4.9-9.3-9.1c0-3.1,0.9-10.2,9.2-10.2c4.1,0,6.1,1.7,7.1,3.1c1.1,1.5,1.2,3.1,1.3,3.1
				l-0.8,0.1l0.4,0l-0.4,0c0-0.2-0.5-5.4-7.6-5.4c-7.2,0-8.3,5.8-8.3,9.3c0,1.4,0.4,8.2,8.4,8.2c0.8,0,7.5-0.2,7.7-7.6h-7.4v-0.9
				h8.3v0.4C71.7,35.2,71.5,43.2,63.1,43.2"/>
		</g>
		<g>
			<defs>
				<rect id="SVGID_99_" x="4.8" y="24" width="290.4" height="85.6"/>
			</defs>
			<clipPath id="SVGID_100_">
				<use xlink:href="#SVGID_99_"  style="overflow:visible;"/>
			</clipPath>
			<rect x="75.5" y="29.6" class="st49" width="0.8" height="13.2"/>
		</g>
		<g>
			<defs>
				<rect id="SVGID_101_" x="4.8" y="24" width="290.4" height="85.6"/>
			</defs>
			<clipPath id="SVGID_102_">
				<use xlink:href="#SVGID_101_"  style="overflow:visible;"/>
			</clipPath>
			<path class="st50" d="M76.4,34.9l-0.8-0.2c1.3-5.8,6.1-5.6,6.2-5.6l0,0.9l0-0.4l0,0.4C81.5,30,77.5,29.9,76.4,34.9"/>
		</g>
		<g>
			<defs>
				<rect id="SVGID_103_" x="4.8" y="24" width="290.4" height="85.6"/>
			</defs>
			<clipPath id="SVGID_104_">
				<use xlink:href="#SVGID_103_"  style="overflow:visible;"/>
			</clipPath>
			<path class="st51" d="M90.3,43.2c-4,0-5-2.4-5-3.8v-9.8h0.8v9.8c0,1.4,1.1,2.9,4.2,2.9c3.2,0,4.9-3.3,4.9-3.3l0.7,0.4
				C95.9,39.6,94,43.2,90.3,43.2"/>
		</g>
		<g>
			<defs>
				<rect id="SVGID_105_" x="4.8" y="24" width="290.4" height="85.6"/>
			</defs>
			<clipPath id="SVGID_106_">
				<use xlink:href="#SVGID_105_"  style="overflow:visible;"/>
			</clipPath>
			<rect x="95.1" y="29.6" class="st52" width="0.8" height="13.3"/>
		</g>
		<g>
			<defs>
				<rect id="SVGID_107_" x="4.8" y="24" width="290.4" height="85.6"/>
			</defs>
			<clipPath id="SVGID_108_">
				<use xlink:href="#SVGID_107_"  style="overflow:visible;"/>
			</clipPath>
			<rect x="100.1" y="29.6" class="st53" width="0.8" height="17.8"/>
		</g>
		<g>
			<defs>
				<rect id="SVGID_109_" x="4.8" y="24" width="290.4" height="85.6"/>
			</defs>
			<clipPath id="SVGID_110_">
				<use xlink:href="#SVGID_109_"  style="overflow:visible;"/>
			</clipPath>
			<path class="st54" d="M106.3,43.2c-3.4,0-6.2-3.1-6.2-7s2.8-7,6.2-7s6.2,3.1,6.2,7S109.8,43.2,106.3,43.2 M106.3,30.1
				c-3,0-5.4,2.7-5.4,6.1c0,3.4,2.4,6.1,5.4,6.1s5.4-2.7,5.4-6.1C111.7,32.8,109.3,30.1,106.3,30.1"/>
		</g>
		<g>
			<defs>
				<rect id="SVGID_111_" x="4.8" y="24" width="290.4" height="85.6"/>
			</defs>
			<clipPath id="SVGID_112_">
				<use xlink:href="#SVGID_111_"  style="overflow:visible;"/>
			</clipPath>
			<path class="st55" d="M121.8,43.2c-3.6,0-6.5-3.1-6.5-7s2.9-7,6.5-7s6.5,3.1,6.5,7S125.4,43.2,121.8,43.2 M121.8,30.1
				c-3.1,0-5.6,2.7-5.6,6.1c0,3.4,2.5,6.1,5.6,6.1c3.1,0,5.6-2.7,5.6-6.1S124.9,30.1,121.8,30.1"/>
		</g>
		<g>
			<defs>
				<rect id="SVGID_113_" x="4.8" y="24" width="290.4" height="85.6"/>
			</defs>
			<clipPath id="SVGID_114_">
				<use xlink:href="#SVGID_113_"  style="overflow:visible;"/>
			</clipPath>
			<path class="st56" d="M103.1,103.4H80.6V53.7h24.1c8.5,0,14,5,14,12.8c0,5.7-4.2,9-7.9,10.6c4.3,1.7,9.4,5.6,9.4,13
				C120.2,98.6,114,103.4,103.1,103.4 M82.8,101.1h20.3c12.4,0,15-5.9,15-10.9c0-8.9-8.8-11.8-11.8-11.8v-2.2
				c1.8,0,10.3-2.5,10.3-9.6c0-7.8-6.1-10.6-11.9-10.6h-22L82.8,101.1L82.8,101.1z"/>
		</g>
		<g>
			<defs>
				<rect id="SVGID_115_" x="4.8" y="24" width="290.4" height="85.6"/>
			</defs>
			<clipPath id="SVGID_116_">
				<use xlink:href="#SVGID_115_"  style="overflow:visible;"/>
			</clipPath>
			<rect x="81.7" y="76.2" class="st57" width="25" height="2.2"/>
		</g>
		<g>
			<defs>
				<rect id="SVGID_117_" x="4.8" y="24" width="290.4" height="85.6"/>
			</defs>
			<clipPath id="SVGID_118_">
				<use xlink:href="#SVGID_117_"  style="overflow:visible;"/>
			</clipPath>
			<rect x="126.3" y="53.8" class="st58" width="2.1" height="49.5"/>
		</g>
		<g>
			<defs>
				<rect id="SVGID_119_" x="4.8" y="24" width="290.4" height="85.6"/>
			</defs>
			<clipPath id="SVGID_120_">
				<use xlink:href="#SVGID_119_"  style="overflow:visible;"/>
			</clipPath>
			<path class="st59" d="M149.9,104.4c-8.2,0-14.2-4.9-14.2-11.7V67.6h2.1v25.1c0,5.6,5,9.5,12.1,9.5c7.7,0,11.5-5.9,13.1-9.4l1.9,1
				C163.5,97,159.2,104.4,149.9,104.4"/>
		</g>
		<g>
			<defs>
				<rect id="SVGID_121_" x="4.8" y="24" width="290.4" height="85.6"/>
			</defs>
			<clipPath id="SVGID_122_">
				<use xlink:href="#SVGID_121_"  style="overflow:visible;"/>
			</clipPath>
			<rect x="162.9" y="67.6" class="st60" width="2.1" height="35.7"/>
		</g>
		<g>
			<defs>
				<rect id="SVGID_123_" x="4.8" y="24" width="290.4" height="85.6"/>
			</defs>
			<clipPath id="SVGID_124_">
				<use xlink:href="#SVGID_123_"  style="overflow:visible;"/>
			</clipPath>
			<rect x="172.6" y="67.6" class="st61" width="2.1" height="35.7"/>
		</g>
		<g>
			<defs>
				<rect id="SVGID_125_" x="4.8" y="24" width="290.4" height="85.6"/>
			</defs>
			<clipPath id="SVGID_126_">
				<use xlink:href="#SVGID_125_"  style="overflow:visible;"/>
			</clipPath>
			<path class="st62" d="M222.6,103.3h-2.1V79.1c0-3.9-1.3-10.4-9.8-10.4c-9.1,0-11.9,8.9-11.9,8.9l-1.5,5.1l-0.5-5.3
				c0-0.4-1-8.7-10-8.7c-3.8,0-6.9,1.7-9.4,5c-1.9,2.6-2.6,5.2-2.6,5.2l-2-0.6c0-0.1,3.4-11.9,14.1-11.9c7.1,0,10.1,4.5,11.3,7.7
				c1.8-3.1,5.6-7.7,12.7-7.7c11.1,0,11.9,9.7,11.9,12.6L222.6,103.3L222.6,103.3z"/>
		</g>
		<g>
			<defs>
				<rect id="SVGID_127_" x="4.8" y="24" width="290.4" height="85.6"/>
			</defs>
			<clipPath id="SVGID_128_">
				<use xlink:href="#SVGID_127_"  style="overflow:visible;"/>
			</clipPath>
			<rect x="196.7" y="77.3" class="st63" width="2.1" height="26"/>
		</g>
		<g>
			<defs>
				<rect id="SVGID_129_" x="4.8" y="24" width="290.4" height="85.6"/>
			</defs>
			<clipPath id="SVGID_130_">
				<use xlink:href="#SVGID_129_"  style="overflow:visible;"/>
			</clipPath>
			<path class="st64" d="M245.5,104.4c-9.7,0-17.5-8.5-17.5-18.9c0-10.4,7.9-18.9,17.5-18.9c9.7,0,17.5,8.5,17.5,18.9
				C263,96,255.2,104.4,245.5,104.4 M245.5,69c-8.5,0-15.4,7.5-15.4,16.6s6.9,16.6,15.4,16.6c8.5,0,15.4-7.5,15.4-16.6
				S254,69,245.5,69"/>
		</g>
		<g>
			<defs>
				<rect id="SVGID_131_" x="4.8" y="24" width="290.4" height="85.6"/>
			</defs>
			<clipPath id="SVGID_132_">
				<use xlink:href="#SVGID_131_"  style="overflow:visible;"/>
			</clipPath>
			<path class="st65" d="M282,104.4c-6.6,0-14.4-2.4-14.4-13.6h2.1c0,7.6,4,11.4,12.3,11.4c10,0,11.1-5,11.1-7.2
				c0-6.1-4.7-7.4-11.9-8.7c-5.8-1-12.4-2.2-12.4-9.3c0-1.1,0.4-10.3,13-10.3c4.8,0,8.4,1.4,10.8,4.1c3,3.5,2.7,7.9,2.7,8.1
				l-2.1-0.2l1.1,0.1l-1.1-0.1c0,0,0.3-3.6-2.2-6.4c-1.9-2.2-5-3.3-9.2-3.3c-10.3,0-10.9,6.7-10.9,8.1c0,4.8,4,5.9,10.7,7.1
				c6.4,1.2,13.7,2.5,13.7,10.9C295.2,103.8,285.1,104.4,282,104.4"/>
		</g>
	</g>
	<g>
		<path class="st66" d="M118.6,133.6c-0.6,0-1.1-0.1-1.5-0.3s-0.9-0.5-1.2-0.9c-0.3-0.4-0.6-0.9-0.8-1.5c-0.2-0.6-0.3-1.3-0.3-2
			c0-0.8,0.1-1.4,0.3-2c0.2-0.6,0.5-1.1,0.8-1.5c0.4-0.4,0.8-0.7,1.2-1c0.5-0.2,1-0.3,1.6-0.3c0.5,0,1,0.1,1.4,0.3
			c0.4,0.2,0.7,0.5,1,0.8l-0.6,0.8c-0.2-0.3-0.5-0.5-0.8-0.6c-0.3-0.2-0.6-0.2-1-0.2c-0.4,0-0.8,0.1-1.2,0.3
			c-0.3,0.2-0.6,0.4-0.9,0.8c-0.2,0.3-0.4,0.7-0.6,1.2c-0.1,0.5-0.2,1-0.2,1.6c0,0.6,0.1,1.1,0.2,1.6c0.1,0.5,0.3,0.9,0.5,1.2
			c0.2,0.3,0.5,0.6,0.9,0.8c0.3,0.2,0.7,0.3,1.1,0.3c0.4,0,0.8-0.1,1.1-0.3c0.3-0.2,0.6-0.4,0.9-0.8l0.6,0.7c-0.4,0.4-0.7,0.8-1.2,1
			C119.7,133.5,119.2,133.6,118.6,133.6z"/>
		<path class="st66" d="M123.6,133.5v-10.2h1.1v2.8l0,1.4c0.3-0.3,0.6-0.6,1-0.8c0.3-0.2,0.7-0.3,1.2-0.3c0.7,0,1.2,0.2,1.5,0.7
			c0.3,0.5,0.5,1.1,0.5,2v4.4h-1.1v-4.2c0-0.7-0.1-1.1-0.3-1.4c-0.2-0.3-0.5-0.4-0.9-0.4c-0.3,0-0.6,0.1-0.9,0.3
			c-0.3,0.2-0.6,0.4-0.9,0.8v5L123.6,133.5L123.6,133.5z"/>
		<path class="st66" d="M132.2,125.1c-0.2,0-0.4-0.1-0.6-0.2c-0.1-0.1-0.2-0.3-0.2-0.5c0-0.2,0.1-0.4,0.2-0.6
			c0.1-0.1,0.3-0.2,0.6-0.2c0.2,0,0.4,0.1,0.5,0.2c0.1,0.1,0.2,0.3,0.2,0.6c0,0.2-0.1,0.4-0.2,0.5
			C132.6,125,132.4,125.1,132.2,125.1z M131.6,133.5v-6.9h1.1v6.9H131.6z"/>
		<path class="st66" d="M136.8,133.6c-0.4,0-0.7-0.1-0.9-0.4c-0.2-0.3-0.3-0.7-0.3-1.2v-8.8h1.1v8.8c0,0.2,0,0.3,0.1,0.4
			c0.1,0.1,0.1,0.1,0.2,0.1c0,0,0.1,0,0.1,0c0,0,0.1,0,0.1,0l0.1,0.9c-0.1,0-0.2,0.1-0.3,0.1C137.1,133.6,137,133.6,136.8,133.6z"/>
		<path class="st66" d="M142.4,133.6c-0.4,0-0.9-0.1-1.2-0.2c-0.4-0.2-0.7-0.4-1-0.7c-0.3-0.3-0.5-0.7-0.7-1.1
			c-0.2-0.4-0.2-1-0.2-1.5c0-0.6,0.1-1.1,0.3-1.5c0.2-0.5,0.4-0.8,0.7-1.1c0.3-0.3,0.6-0.6,0.9-0.7c0.4-0.2,0.7-0.2,1.1-0.2
			c0.4,0,0.8,0.1,1.1,0.2c0.3,0.2,0.6,0.4,0.8,0.7c0.2,0.3,0.4,0.6,0.5,1c0.1,0.4,0.2,0.8,0.2,1.3c0,0.1,0,0.2,0,0.4
			c0,0.1,0,0.2,0,0.3h-4.4c0,0.7,0.3,1.3,0.7,1.8c0.4,0.4,0.9,0.6,1.5,0.6c0.3,0,0.6,0,0.9-0.2c0.3-0.1,0.5-0.2,0.8-0.4l0.4,0.8
			c-0.3,0.2-0.6,0.4-1,0.5C143.3,133.6,142.9,133.6,142.4,133.6z M140.4,129.4h3.5c0-0.7-0.1-1.2-0.4-1.6c-0.3-0.4-0.7-0.5-1.2-0.5
			c-0.2,0-0.5,0-0.7,0.1c-0.2,0.1-0.4,0.2-0.6,0.4c-0.2,0.2-0.3,0.4-0.4,0.7C140.5,128.8,140.4,129.1,140.4,129.4z"/>
		<path class="st66" d="M160.9,137v-14.3h0.8V137H160.9z"/>
		<path class="st66" d="M175,133.5v-9.4h2.6c0.5,0,0.9,0,1.2,0.1c0.4,0.1,0.7,0.2,1,0.4c0.3,0.2,0.5,0.4,0.6,0.7
			c0.1,0.3,0.2,0.6,0.2,1c0,0.5-0.1,0.9-0.3,1.3c-0.2,0.4-0.5,0.6-1,0.8v0.1c0.5,0.1,1,0.3,1.3,0.7c0.3,0.4,0.5,0.9,0.5,1.5
			c0,0.5-0.1,0.9-0.2,1.2c-0.2,0.3-0.4,0.6-0.7,0.9c-0.3,0.2-0.7,0.4-1.1,0.5c-0.4,0.1-0.9,0.2-1.4,0.2L175,133.5L175,133.5z
			 M176.1,128.1h1.3c0.8,0,1.3-0.1,1.6-0.4c0.3-0.3,0.5-0.7,0.5-1.1c0-0.5-0.2-0.9-0.5-1.2c-0.3-0.2-0.9-0.3-1.6-0.3h-1.4
			L176.1,128.1L176.1,128.1z M176.1,132.5h1.5c0.8,0,1.4-0.1,1.8-0.4c0.4-0.3,0.6-0.8,0.6-1.4c0-0.6-0.2-1-0.6-1.3
			c-0.4-0.3-1-0.4-1.8-0.4h-1.5V132.5z"/>
		<path class="st66" d="M183.5,133.5v-6.9h0.9l0.1,1.3h0c0.2-0.4,0.5-0.8,0.8-1c0.3-0.3,0.7-0.4,1.1-0.4c0.3,0,0.5,0,0.7,0.1l-0.2,1
			c-0.1,0-0.2-0.1-0.3-0.1s-0.2,0-0.3,0c-0.3,0-0.6,0.1-0.9,0.4c-0.3,0.2-0.6,0.7-0.8,1.2v4.5L183.5,133.5L183.5,133.5z"/>
		<path class="st66" d="M190.1,133.6c-0.6,0-1-0.2-1.4-0.5c-0.4-0.3-0.5-0.8-0.5-1.5c0-0.8,0.3-1.3,1-1.7c0.6-0.4,1.7-0.7,3.1-0.8
			c0-0.2,0-0.4-0.1-0.6c0-0.2-0.1-0.4-0.2-0.6s-0.2-0.3-0.4-0.4c-0.2-0.1-0.4-0.1-0.7-0.1c-0.4,0-0.7,0.1-1.1,0.2
			c-0.3,0.2-0.6,0.3-0.9,0.5l-0.4-0.8c0.3-0.2,0.7-0.4,1.1-0.6c0.4-0.2,0.9-0.3,1.5-0.3c0.8,0,1.4,0.3,1.8,0.8
			c0.4,0.5,0.5,1.2,0.5,2.1v4.3h-0.9l-0.1-0.8h0c-0.3,0.3-0.7,0.5-1,0.7C190.9,133.5,190.5,133.6,190.1,133.6z M190.4,132.7
			c0.3,0,0.6-0.1,0.9-0.2c0.3-0.2,0.6-0.4,0.9-0.7v-1.9c-0.6,0.1-1,0.2-1.4,0.3c-0.4,0.1-0.7,0.2-0.9,0.4c-0.2,0.1-0.4,0.3-0.5,0.5
			c-0.1,0.2-0.2,0.4-0.2,0.6c0,0.4,0.1,0.7,0.3,0.9C189.8,132.6,190.1,132.7,190.4,132.7z"/>
		<path class="st66" d="M197.8,133.6c-0.5,0-0.9-0.1-1.3-0.3s-0.8-0.4-1.1-0.7l0.6-0.8c0.3,0.2,0.6,0.4,0.9,0.6
			c0.3,0.2,0.7,0.2,1.1,0.2c0.4,0,0.8-0.1,1-0.3c0.2-0.2,0.3-0.5,0.3-0.8c0-0.2,0-0.3-0.1-0.5c-0.1-0.1-0.2-0.2-0.3-0.3
			c-0.1-0.1-0.3-0.2-0.5-0.3c-0.2-0.1-0.4-0.2-0.5-0.2c-0.2-0.1-0.5-0.2-0.7-0.3c-0.2-0.1-0.4-0.2-0.6-0.4c-0.2-0.2-0.3-0.3-0.5-0.5
			c-0.1-0.2-0.2-0.5-0.2-0.8c0-0.3,0.1-0.5,0.2-0.8c0.1-0.2,0.3-0.5,0.4-0.6c0.2-0.2,0.4-0.3,0.7-0.4c0.3-0.1,0.6-0.1,0.9-0.1
			c0.4,0,0.8,0.1,1.1,0.2c0.3,0.2,0.7,0.3,0.9,0.6l-0.5,0.7c-0.2-0.2-0.5-0.3-0.7-0.4c-0.2-0.1-0.5-0.2-0.8-0.2
			c-0.4,0-0.7,0.1-0.9,0.3c-0.2,0.2-0.3,0.4-0.3,0.7c0,0.2,0,0.3,0.1,0.4c0.1,0.1,0.2,0.2,0.3,0.3c0.1,0.1,0.3,0.2,0.5,0.2
			c0.2,0.1,0.4,0.1,0.6,0.2c0.2,0.1,0.5,0.2,0.7,0.3c0.2,0.1,0.5,0.2,0.6,0.4c0.2,0.2,0.3,0.3,0.5,0.6c0.1,0.2,0.2,0.5,0.2,0.8
			c0,0.3-0.1,0.6-0.2,0.8c-0.1,0.2-0.3,0.5-0.5,0.7c-0.2,0.2-0.5,0.3-0.8,0.4C198.5,133.6,198.2,133.6,197.8,133.6z"/>
		<path class="st66" d="M203,125.1c-0.2,0-0.4-0.1-0.6-0.2c-0.1-0.1-0.2-0.3-0.2-0.5c0-0.2,0.1-0.4,0.2-0.6c0.2-0.1,0.3-0.2,0.6-0.2
			c0.2,0,0.4,0.1,0.5,0.2c0.2,0.1,0.2,0.3,0.2,0.6c0,0.2-0.1,0.4-0.2,0.5C203.4,125,203.2,125.1,203,125.1z M202.4,133.5v-6.9h1.1
			v6.9H202.4z"/>
		<path class="st66" d="M207.6,133.6c-0.4,0-0.7-0.1-0.9-0.4c-0.2-0.3-0.3-0.7-0.3-1.2v-8.8h1.1v8.8c0,0.2,0,0.3,0.1,0.4
			c0.1,0.1,0.1,0.1,0.2,0.1c0,0,0.1,0,0.1,0c0,0,0.1,0,0.1,0l0.2,0.9c-0.1,0-0.2,0.1-0.3,0.1C207.9,133.6,207.8,133.6,207.6,133.6z"
			/>
		<path class="st66" d="M224.3,137v-14.3h0.8V137H224.3z"/>
		<path class="st66" d="M238.4,133.5v-9.4h2.5c0.5,0,1,0,1.4,0.1c0.4,0.1,0.8,0.2,1.1,0.5c0.3,0.2,0.5,0.5,0.7,0.8
			c0.2,0.4,0.2,0.8,0.2,1.3c0,0.5-0.1,0.9-0.2,1.3c-0.2,0.4-0.4,0.7-0.7,0.9c-0.3,0.2-0.6,0.4-1,0.5c-0.4,0.1-0.8,0.2-1.3,0.2h-1.5
			v3.7H238.4z M239.5,128.8h1.3c0.8,0,1.4-0.2,1.7-0.5c0.4-0.3,0.6-0.8,0.6-1.5c0-0.7-0.2-1.1-0.6-1.4c-0.4-0.3-1-0.4-1.8-0.4h-1.3
			L239.5,128.8L239.5,128.8z"/>
		<path class="st66" d="M249,133.6c-0.4,0-0.9-0.1-1.2-0.2c-0.4-0.2-0.7-0.4-1-0.7c-0.3-0.3-0.5-0.7-0.7-1.1c-0.2-0.4-0.2-1-0.2-1.5
			c0-0.6,0.1-1.1,0.3-1.5c0.2-0.5,0.4-0.8,0.7-1.1c0.3-0.3,0.6-0.6,0.9-0.7c0.4-0.2,0.7-0.2,1.1-0.2c0.4,0,0.8,0.1,1.1,0.2
			c0.3,0.2,0.6,0.4,0.8,0.7c0.2,0.3,0.4,0.6,0.5,1c0.1,0.4,0.2,0.8,0.2,1.3c0,0.1,0,0.2,0,0.4c0,0.1,0,0.2,0,0.3h-4.4
			c0,0.7,0.3,1.3,0.7,1.8c0.4,0.4,0.9,0.6,1.5,0.6c0.3,0,0.6,0,0.9-0.2c0.3-0.1,0.5-0.2,0.8-0.4l0.4,0.8c-0.3,0.2-0.6,0.4-1,0.5
			C249.8,133.6,249.4,133.6,249,133.6z M246.9,129.4h3.5c0-0.7-0.1-1.2-0.4-1.6c-0.3-0.4-0.7-0.5-1.2-0.5c-0.2,0-0.5,0-0.7,0.1
			c-0.2,0.1-0.4,0.2-0.6,0.4c-0.2,0.2-0.3,0.4-0.4,0.7C247,128.8,246.9,129.1,246.9,129.4z"/>
		<path class="st66" d="M253.7,133.5v-6.9h0.9l0.1,1.3h0c0.2-0.4,0.5-0.8,0.8-1c0.3-0.3,0.7-0.4,1.1-0.4c0.3,0,0.5,0,0.7,0.1l-0.2,1
			c-0.1,0-0.2-0.1-0.3-0.1c-0.1,0-0.2,0-0.3,0c-0.3,0-0.6,0.1-0.9,0.4c-0.3,0.2-0.6,0.7-0.8,1.2v4.5L253.7,133.5L253.7,133.5z"/>
		<path class="st66" d="M261,133.6c-0.7,0-1.2-0.2-1.5-0.7c-0.3-0.5-0.5-1.1-0.5-2v-4.4h1.1v4.2c0,0.7,0.1,1.1,0.3,1.4
			c0.2,0.3,0.5,0.4,0.9,0.4c0.3,0,0.6-0.1,0.9-0.3c0.3-0.2,0.6-0.5,0.9-0.9v-4.9h1.1v6.9h-0.9l-0.1-1.1h0c-0.3,0.4-0.6,0.7-1,0.9
			C261.9,133.5,261.5,133.6,261,133.6z M261.5,125.3l-0.6-0.6l1.9-2.4l0.8,0.8L261.5,125.3z"/>
	</g>
</g>
</svg>
