<?xml version="1.0" encoding="utf-8"?>
<!-- Generator: Adobe Illustrator 22.0.1, SVG Export Plug-In . SVG Version: 6.00 Build 0)  -->
<svg version="1.1" id="Capa_1" xmlns="http://www.w3.org/2000/svg" xmlns:xlink="http://www.w3.org/1999/xlink" x="0px" y="0px"
	 viewBox="0 0 263.5 105.3" style="enable-background:new 0 0 263.5 105.3;" xml:space="preserve">
<style type="text/css">
	.st0{fill:#FFFFFF;}
</style>
<g>
	<g>
		<path class="st0" d="M56.6,46.5c0,0-2-1.5-2-4.6s2-3.9,2.6-3.9c0.8,0,1.4,0.4,1.4,1.4C58.6,41,54.6,41.5,56.6,46.5z"/>
	</g>
	<g>
		<path class="st0" d="M53.7,44.1c0,0-2.3-1-2.9-4.1c-0.7-3,1.1-4.2,1.7-4.4c0.8-0.2,1.4,0.1,1.6,1.1C54.5,38.4,50.6,39.7,53.7,44.1
			z"/>
	</g>
	<g>
		<path class="st0" d="M50.3,42.5c0,0-2.4-0.5-3.7-3.4c-1.3-2.8,0.2-4.4,0.8-4.6c0.8-0.3,1.4-0.2,1.8,0.7
			C49.9,36.8,46.4,38.8,50.3,42.5z"/>
	</g>
	<g>
		<path class="st0" d="M46.7,41.6c0,0-2.5,0-4.3-2.5s-0.7-4.3-0.2-4.7c0.7-0.5,1.4-0.5,2,0.3C45.1,36.1,42.1,38.8,46.7,41.6z"/>
	</g>
	<g>
		<path class="st0" d="M43.1,41.5c0,0-2.4,0.5-4.8-1.6c-2.3-2.1-1.6-4.1-1.2-4.5c0.6-0.6,1.2-0.7,2-0.1C40.4,36.4,38,39.7,43.1,41.5
			z"/>
	</g>
	<g>
		<path class="st0" d="M39.4,42.1c0,0-2.3,1-5-0.5S32,38,32.3,37.4c0.4-0.7,1-1,1.9-0.5C35.6,37.7,34,41.5,39.4,42.1z"/>
	</g>
	<g>
		<path class="st0" d="M35.9,43.5c0,0-2,1.5-5,0.5s-3.1-3-2.9-3.7c0.3-0.8,0.8-1.2,1.8-0.9C31.3,40,30.6,44,35.9,43.5z"/>
	</g>
	<g>
		<g>
			<path class="st0" d="M36.2,44.5c0,0-2.3,0.9-3.1,4c-0.8,3,0.9,4.3,1.6,4.4c0.8,0.2,1.4-0.1,1.7-1.1C36.8,50.3,33,48.9,36.2,44.5z
				"/>
		</g>
		<g>
			<path class="st0" d="M31.7,48.2c0,0-1.8,1.7-1.5,4.8c0.3,3.1,2.3,3.7,3,3.6c0.8-0.1,1.3-0.6,1.2-1.6
				C34.2,53.4,30.2,53.3,31.7,48.2z"/>
		</g>
		<g>
			<path class="st0" d="M28.7,53.2c0,0-1.2,2.2,0.2,5c1.4,2.8,3.5,2.6,4.1,2.4c0.8-0.4,1-1,0.6-1.9C32.9,57.2,29,58.5,28.7,53.2z"/>
		</g>
		<g>
			<path class="st0" d="M27.6,58.9c0,0-0.3,2.5,1.9,4.6s4.2,1.3,4.6,0.8c0.6-0.6,0.6-1.3-0.1-2C32.9,61.2,29.8,63.8,27.6,58.9z"/>
		</g>
		<g>
			<path class="st0" d="M28.5,64.6c0,0,0.5,2.4,3.4,3.7s4.4-0.2,4.6-0.8c0.3-0.8,0.2-1.4-0.8-1.8C34.3,65,32.3,68.5,28.5,64.6z"/>
		</g>
		<g>
			<path class="st0" d="M31.4,69.7c0,0,1.3,2.1,4.4,2.3s4-1.7,4.1-2.3c0.1-0.8-0.3-1.4-1.3-1.5C36.9,68.1,36.2,72.1,31.4,69.7z"/>
		</g>
		<g>
			<path class="st0" d="M35.8,73.5c0,0,2,1.5,5,0.7c3-0.9,3.2-3,3-3.6c-0.2-0.8-0.8-1.2-1.8-0.9C40.4,70.1,41.1,74,35.8,73.5z"/>
		</g>
		<g>
			<path class="st0" d="M41.2,75.5c0,0,2.4,0.7,4.9-1.1c2.5-1.8,2-3.9,1.6-4.4c-0.5-0.7-1.1-0.9-2-0.3
				C44.4,70.7,46.4,74.2,41.2,75.5z"/>
		</g>
		<g>
			<path class="st0" d="M47,75.6c0,0,2.5-0.1,4.2-2.7c1.7-2.6,0.5-4.3,0-4.7c-0.7-0.5-1.4-0.4-1.9,0.4C48.4,70,51.5,72.6,47,75.6z"
				/>
		</g>
		<g>
			<path class="st0" d="M52.5,73.6c0,0,2.3-1,3-4c0.7-3-1-4.2-1.6-4.4c-0.8-0.2-1.4,0.1-1.7,1.1C51.8,67.9,55.6,69.3,52.5,73.6z"/>
		</g>
		<g>
			<path class="st0" d="M57,70c0,0,1.8-1.7,1.5-4.8c-0.3-3.1-2.4-3.7-3-3.6c-0.8,0.1-1.3,0.6-1.2,1.6C54.4,64.8,58.4,64.8,57,70z"/>
		</g>
		<g>
			<path class="st0" d="M59.9,64.9c0,0,1.1-2.2-0.2-5c-1.4-2.8-3.5-2.6-4.1-2.3c-0.8,0.4-1,1-0.6,1.9C55.7,61,59.5,59.6,59.9,64.9z"
				/>
		</g>
		<g>
			<path class="st0" d="M60.9,59.5c0,0,0.3-2.5-1.9-4.6c-2.2-2.2-4.2-1.3-4.6-0.9c-0.6,0.6-0.7,1.3,0.1,2
				C55.7,57.1,58.8,54.5,60.9,59.5z"/>
		</g>
		<g>
			<path class="st0" d="M60,53.6c0,0-0.5-2.4-3.4-3.7c-2.9-1.3-4.4,0.2-4.6,0.8c-0.3,0.8-0.2,1.4,0.8,1.8
				C54.3,53.2,56.3,49.7,60,53.6z"/>
		</g>
		<g>
			<path class="st0" d="M57.3,48.7c0,0-1.3-2.1-4.4-2.3c-3.1-0.2-4,1.7-4.1,2.3c-0.1,0.8,0.3,1.4,1.3,1.5
				C51.7,50.2,52.5,46.3,57.3,48.7z"/>
		</g>
		<g>
			<path class="st0" d="M52.8,44.8c0,0-2-1.5-5-0.6c-3,0.9-3.2,3-3,3.6c0.2,0.8,0.8,1.2,1.8,0.9C48.1,48.2,47.5,44.2,52.8,44.8z"/>
		</g>
		<g>
			<path class="st0" d="M47.5,42.8c0,0-2.4-0.8-4.9,1.1s-2,3.9-1.6,4.4c0.5,0.7,1.1,0.9,2,0.3C44.2,47.5,42.2,44,47.5,42.8z"/>
		</g>
		<g>
			<path class="st0" d="M41.7,42.7c0,0-2.5,0.1-4.2,2.7s-0.6,4.3,0,4.7c0.7,0.5,1.4,0.4,1.9-0.4C40.3,48.3,37.2,45.6,41.7,42.7z"/>
		</g>
	</g>
	<g>
		<path class="st0" d="M32.9,45.6c0,0-1.7,1.9-4.8,1.6c-3.1-0.3-3.7-2.3-3.6-3c0.1-0.8,0.6-1.3,1.6-1.2
			C27.7,43.1,27.7,47.2,32.9,45.6z"/>
	</g>
	<g>
		<path class="st0" d="M30.3,48.3c0,0-1.2,2.2-4.3,2.5s-4.1-1.5-4.2-2.2c-0.1-0.8,0.3-1.4,1.3-1.5C24.7,46.9,25.6,50.8,30.3,48.3z"
			/>
	</g>
	<g>
		<path class="st0" d="M28.4,51.4c0,0-0.8,2.4-3.7,3.4s-4.3-0.6-4.5-1.2c-0.3-0.8,0-1.4,0.9-1.8C22.6,51.3,24.3,54.9,28.4,51.4z"/>
	</g>
	<g>
		<path class="st0" d="M27.1,54.9c0,0-0.3,2.5-2.9,4.1s-4.4,0.3-4.7-0.3c-0.4-0.7-0.3-1.4,0.5-1.9C21.4,55.9,23.9,59.2,27.1,54.9z"
			/>
	</g>
	<g>
		<path class="st0" d="M26.6,58.6c0,0,0.3,2.5-2,4.6s-4.2,1.2-4.6,0.7c-0.6-0.6-0.6-1.3,0.1-2C21.3,60.8,24.3,63.5,26.6,58.6z"/>
	</g>
	<g>
		<path class="st0" d="M26.9,62.3c0,0,0.8,2.4-1,4.9s-3.9,2-4.4,1.7c-0.7-0.5-0.9-1.1-0.3-2C22.1,65.6,25.7,67.5,26.9,62.3z"/>
	</g>
	<g>
		<path class="st0" d="M27.9,65.8c0,0,1.3,2.2,0,5c-1.2,2.9-3.3,2.8-3.9,2.5c-0.8-0.3-1.1-0.9-0.7-1.9C24,70,27.8,71.2,27.9,65.8z"
			/>
	</g>
	<g>
		<path class="st0" d="M29.7,69.1c0,0,1.7,1.8,1,4.9c-0.6,3.1-2.7,3.4-3.3,3.3c-0.8-0.2-1.3-0.7-1.1-1.7
			C26.6,74,30.7,74.3,29.7,69.1z"/>
	</g>
	<g>
		<path class="st0" d="M32.1,71.9c0,0,2,1.5,2.1,4.6c0,3.1-1.9,3.9-2.6,3.9c-0.8,0-1.4-0.4-1.4-1.4C30.2,77.4,34.2,76.9,32.1,71.9z"
			/>
	</g>
	<g>
		<path class="st0" d="M35,74.2c0,0,2.3,1,3,4c0.7,3-1.1,4.2-1.7,4.4c-0.8,0.2-1.4-0.1-1.6-1.1C34.3,79.9,38.1,78.6,35,74.2z"/>
	</g>
	<g>
		<path class="st0" d="M38.3,75.8c0,0,2.4,0.5,3.7,3.4c1.3,2.8-0.2,4.4-0.8,4.6c-0.8,0.4-1.4,0.2-1.8-0.7
			C38.7,81.5,42.2,79.4,38.3,75.8z"/>
	</g>
	<g>
		<path class="st0" d="M42,76.7c0,0,2.5,0,4.4,2.5s0.8,4.3,0.2,4.7c-0.7,0.5-1.3,0.5-2-0.3C43.7,82.2,46.6,79.4,42,76.7z"/>
	</g>
	<g>
		<path class="st0" d="M45.7,76.8c0,0,2.4-0.5,4.8,1.5c2.3,2.1,1.6,4,1.2,4.5c-0.6,0.6-1.2,0.7-2,0.1C48.4,81.8,50.8,78.5,45.7,76.8
			z"/>
	</g>
	<g>
		<path class="st0" d="M49.2,76.1c0,0,2.3-1,5,0.5s2.4,3.6,2.1,4.2c-0.4,0.7-1,1-1.9,0.5C52.9,80.5,54.5,76.8,49.2,76.1z"/>
	</g>
	<g>
		<path class="st0" d="M52.7,74.7c0,0,2-1.5,5-0.5c3,0.9,3.1,3,2.9,3.7c-0.3,0.8-0.8,1.2-1.8,0.9C57.2,78.2,58,74.2,52.7,74.7z"/>
	</g>
	<g>
		<path class="st0" d="M55.7,72.6c0,0,1.7-1.9,4.8-1.6c3.1,0.3,3.7,2.3,3.6,3c-0.1,0.8-0.6,1.3-1.6,1.2
			C60.9,75.1,60.9,71.1,55.7,72.6z"/>
	</g>
	<g>
		<path class="st0" d="M58.2,70c0,0,1.2-2.2,4.3-2.5s4.1,1.5,4.2,2.2c0.1,0.8-0.3,1.4-1.3,1.5C63.8,71.4,62.9,67.4,58.2,70z"/>
	</g>
	<g>
		<path class="st0" d="M60.2,66.9c0,0,0.8-2.4,3.7-3.4c3-1,4.3,0.6,4.5,1.3c0.3,0.8,0,1.4-0.9,1.7C66,67,64.3,63.4,60.2,66.9z"/>
	</g>
	<g>
		<path class="st0" d="M61.5,63.4c0,0,0.3-2.5,2.9-4.1c2.7-1.6,4.4-0.3,4.7,0.3c0.4,0.7,0.3,1.4-0.5,1.9
			C67.1,62.3,64.7,59.1,61.5,63.4z"/>
	</g>
	<g>
		<path class="st0" d="M62,59.7c0,0-0.3-2.5,2-4.6c2.3-2.1,4.2-1.2,4.6-0.7c0.6,0.6,0.6,1.3-0.1,2C67.3,57.6,64.3,54.9,62,59.7z"/>
	</g>
	<g>
		<path class="st0" d="M61.7,56.2c0,0-0.8-2.4,1.1-4.9c1.8-2.5,3.9-2,4.4-1.6c0.7,0.5,0.9,1.1,0.3,2C66.5,52.9,63,50.9,61.7,56.2z"
			/>
	</g>
	<g>
		<path class="st0" d="M60.7,52.5c0,0-1.2-2.2,0-5s3.4-2.8,4-2.5c0.8,0.3,1.1,0.9,0.7,1.9C64.7,48.3,60.8,47.1,60.7,52.5z"/>
	</g>
	<g>
		<path class="st0" d="M58.9,49.2c0,0-1.7-1.9-1-4.9s2.7-3.4,3.3-3.3c0.8,0.2,1.3,0.7,1,1.7C62,44.3,57.9,43.9,58.9,49.2z"/>
	</g>
	<g>
		<path class="st0" d="M64.4,35.3c-5.3,0-7.2-3.6-7.2-6.7c0-2.3,0.7-7.5,7.1-7.5c3.1,0,4.7,1.2,5.5,2.3c0.9,1.1,1,2.3,1,2.3
			l-0.7,0.1l0.3,0l-0.3,0c0-0.2-0.4-4-5.9-4c-5.6,0-6.5,4.3-6.5,6.8c0,1,0.3,6,6.5,6c0.6,0,5.8-0.2,6-5.6h-5.7v-0.7h6.4v0.3
			C71.1,29.4,70.9,35.3,64.4,35.3z"/>
	</g>
	<g>
		<rect x="74" y="25.3" class="st0" width="0.7" height="9.7"/>
	</g>
	<g>
		<path class="st0" d="M74.7,29.2L74,29.1c1-4.3,4.8-4.1,4.8-4.1l0,0.7l0-0.3l0,0.3C78.7,25.6,75.6,25.5,74.7,29.2z"/>
	</g>
	<g>
		<path class="st0" d="M85.5,35.3c-3.1,0-3.9-1.8-3.9-2.8v-7.2h0.7v7.2c0,1,0.9,2.2,3.3,2.2c2.5,0,3.8-2.4,3.8-2.4l0.6,0.3
			C89.8,32.7,88.4,35.3,85.5,35.3z"/>
	</g>
	<g>
		<rect x="89.2" y="25.3" class="st0" width="0.7" height="9.8"/>
	</g>
	<g>
		<rect x="93.1" y="25.3" class="st0" width="0.7" height="13.1"/>
	</g>
	<g>
		<path class="st0" d="M97.9,35.3c-2.7,0-4.8-2.3-4.8-5.2s2.2-5.2,4.8-5.2s4.8,2.3,4.8,5.2S100.6,35.3,97.9,35.3z M97.9,25.6
			c-2.3,0-4.2,2-4.2,4.5s1.9,4.5,4.2,4.5s4.2-2,4.2-4.5S100.2,25.6,97.9,25.6z"/>
	</g>
	<g>
		<path class="st0" d="M109.9,35.3c-2.8,0-5-2.3-5-5.2s2.3-5.2,5-5.2s5,2.3,5,5.2S112.7,35.3,109.9,35.3z M109.9,25.6
			c-2.4,0-4.4,2-4.4,4.5s2,4.5,4.4,4.5s4.4-2,4.4-4.5S112.3,25.6,109.9,25.6z"/>
	</g>
	<g>
		<path class="st0" d="M95.4,79.6H78V43.1h18.7c6.6,0,10.8,3.7,10.8,9.4c0,4.2-3.3,6.7-6.1,7.8c3.3,1.2,7.3,4.1,7.3,9.6
			C108.7,76.1,103.8,79.6,95.4,79.6z M79.6,78h15.8c9.6,0,11.6-4.4,11.6-8c0-6.6-6.8-8.7-9.1-8.7v-1.6c1.4,0,8-1.8,8-7.1
			c0-5.8-4.7-7.8-9.2-7.8H79.6V78z"/>
	</g>
	<g>
		<rect x="78.8" y="59.6" class="st0" width="19.4" height="1.6"/>
	</g>
	<g>
		<rect x="113.4" y="43.1" class="st0" width="1.6" height="36.5"/>
	</g>
	<g>
		<path class="st0" d="M131.7,80.4c-6.4,0-11-3.6-11-8.6V53.3h1.6v18.5c0,4.1,3.8,7,9.4,7c6,0,8.9-4.3,10.1-6.9l1.5,0.7
			C142.2,74.9,138.9,80.4,131.7,80.4z"/>
	</g>
	<g>
		<rect x="141.8" y="53.3" class="st0" width="1.6" height="26.3"/>
	</g>
	<g>
		<rect x="149.3" y="53.3" class="st0" width="1.6" height="26.3"/>
	</g>
	<g>
		<path class="st0" d="M188,79.6h-1.6V61.8c0-2.9-1-7.7-7.6-7.7c-7.1,0-9.2,6.5-9.2,6.6l-1.2,3.8l-0.4-3.9c0-0.3-0.8-6.4-7.7-6.4
			c-2.9,0-5.4,1.2-7.3,3.7c-1.5,1.9-2,3.8-2,3.8l-1.6-0.5c0-0.1,2.6-8.7,10.9-8.7c5.5,0,7.8,3.3,8.7,5.7c1.4-2.3,4.3-5.7,9.8-5.7
			c8.6,0,9.2,7.1,9.2,9.3V79.6z"/>
	</g>
	<g>
		<rect x="167.9" y="60.5" class="st0" width="1.6" height="19.1"/>
	</g>
	<g>
		<path class="st0" d="M205.8,80.4c-7.5,0-13.6-6.2-13.6-13.9s6.1-13.9,13.6-13.9c7.5,0,13.6,6.2,13.6,13.9S213.2,80.4,205.8,80.4z
			 M205.8,54.3c-6.6,0-11.9,5.5-11.9,12.3c0,6.8,5.3,12.3,11.9,12.3s11.9-5.5,11.9-12.3C217.7,59.8,212.3,54.3,205.8,54.3z"/>
	</g>
	<g>
		<path class="st0" d="M234,80.4c-5.1,0-11.2-1.7-11.2-10h1.6c0,5.6,3.1,8.4,9.5,8.4c7.8,0,8.6-3.7,8.6-5.3c0-4.5-3.7-5.4-9.2-6.4
			c-4.5-0.8-9.6-1.6-9.6-6.8c0-0.8,0.3-7.6,10.1-7.6c3.7,0,6.5,1,8.4,3c2.4,2.6,2.1,5.8,2.1,5.9l-1.6-0.1l0.8,0.1l-0.8-0.1
			c0,0,0.2-2.7-1.7-4.7c-1.5-1.6-3.9-2.4-7.1-2.4c-8,0-8.4,5-8.4,6c0,3.5,3.1,4.3,8.3,5.2c5,0.9,10.6,1.8,10.6,8
			C244.3,79.9,236.4,80.4,234,80.4z"/>
	</g>
</g>
</svg>
