<?xml version="1.0" encoding="utf-8"?>
<!-- Generator: Adobe Illustrator 16.0.0, SVG Export Plug-In . SVG Version: 6.00 Build 0)  -->
<!DOCTYPE svg PUBLIC "-//W3C//DTD SVG 1.1//EN" "http://www.w3.org/Graphics/SVG/1.1/DTD/svg11.dtd">
<svg version="1.1" id="Capa_1" xmlns="http://www.w3.org/2000/svg" xmlns:xlink="http://www.w3.org/1999/xlink" x="0px" y="0px"
	 width="800px" height="600px" viewBox="0 0 800 600" enable-background="new 0 0 800 600" xml:space="preserve">
<g>
	<g>
		<g>
			<defs>
				<rect id="SVGID_1_" y="23.2" width="800" height="553.6"/>
			</defs>
			<clipPath id="SVGID_2_">
				<use xlink:href="#SVGID_1_"  overflow="visible"/>
			</clipPath>
			<g clip-path="url(#SVGID_2_)">
				<path fill="#FFFFFF" d="M768,87.2H32c-19.2,0-32-12.8-32-32c0-19.2,12.8-32,32-32h736c19.2,0,32,12.8,32,32
					C800,74.4,787.2,87.2,768,87.2z"/>
			</g>
		</g>
	</g>
	<g>
		<g>
			<defs>
				<rect id="SVGID_3_" y="23.2" width="800" height="553.6"/>
			</defs>
			<clipPath id="SVGID_4_">
				<use xlink:href="#SVGID_3_"  overflow="visible"/>
			</clipPath>
			<g clip-path="url(#SVGID_4_)">
				<path fill="#FFFFFF" d="M217.6,378.4c-115.2,0-198.4-48-201.6-51.2C0,317.6-3.2,298.4,3.2,282.4c9.6-16,28.8-19.2,44.8-9.6l0,0
					c6.4,3.2,160,92.8,336,0c233.6-115.2,396.8-3.2,403.2,3.2c12.8,9.6,16,32,6.399,44.8c-9.6,12.8-32,16-44.8,6.4
					c-6.399-3.2-137.6-96-336,3.2C345.6,365.6,278.4,378.4,217.6,378.4z"/>
			</g>
		</g>
	</g>
	<g>
		<g>
			<defs>
				<rect id="SVGID_5_" y="23.2" width="800" height="553.6"/>
			</defs>
			<clipPath id="SVGID_6_">
				<use xlink:href="#SVGID_5_"  overflow="visible"/>
			</clipPath>
			<g clip-path="url(#SVGID_6_)">
				<path fill="#FFFFFF" d="M768,576.8H32c-19.2,0-32-12.8-32-32s12.8-32,32-32h736c19.2,0,32,12.8,32,32
					C800,560.8,787.2,576.8,768,576.8z"/>
			</g>
		</g>
	</g>
</g>
</svg>
