<?xml version="1.0" encoding="utf-8"?>
<!-- Generator: Adobe Illustrator 22.0.1, SVG Export Plug-In . SVG Version: 6.00 Build 0)  -->
<svg version="1.1" id="Capa_1" xmlns="http://www.w3.org/2000/svg" xmlns:xlink="http://www.w3.org/1999/xlink" x="0px" y="0px"
	 viewBox="0 0 25 17.3" style="enable-background:new 0 0 25 17.3;" xml:space="preserve">
<style type="text/css">
	.st0{clip-path:url(#SVGID_2_);}
	.st1{fill:#204293;}
	.st2{clip-path:url(#SVGID_4_);}
	.st3{clip-path:url(#SVGID_6_);}
</style>
<g>
	<g>
		<defs>
			<rect id="SVGID_1_" width="25" height="17.3"/>
		</defs>
		<clipPath id="SVGID_2_">
			<use xlink:href="#SVGID_1_"  style="overflow:visible;"/>
		</clipPath>
		<g class="st0">
			<path class="st1" d="M24,2H1C0.4,2,0,1.6,0,1s0.4-1,1-1h23c0.6,0,1,0.4,1,1S24.6,2,24,2z"/>
		</g>
	</g>
	<g>
		<defs>
			<rect id="SVGID_3_" width="25" height="17.3"/>
		</defs>
		<clipPath id="SVGID_4_">
			<use xlink:href="#SVGID_3_"  style="overflow:visible;"/>
		</clipPath>
		<g class="st2">
			<path class="st1" d="M6.8,11.1c-3.6,0-6.2-1.5-6.3-1.6C0,9.2-0.1,8.6,0.1,8.1C0.4,7.6,1,7.5,1.5,7.8l0,0c0.2,0.1,5,2.9,10.5,0
				c7.3-3.6,12.4-0.1,12.6,0.1c0.4,0.3,0.5,1,0.2,1.4c-0.3,0.4-1,0.5-1.4,0.2c-0.2-0.1-4.3-3-10.5,0.1C10.8,10.7,8.7,11.1,6.8,11.1z
				"/>
		</g>
	</g>
	<g>
		<defs>
			<rect id="SVGID_5_" width="25" height="17.3"/>
		</defs>
		<clipPath id="SVGID_6_">
			<use xlink:href="#SVGID_5_"  style="overflow:visible;"/>
		</clipPath>
		<g class="st3">
			<path class="st1" d="M24,17.3H1c-0.6,0-1-0.4-1-1s0.4-1,1-1h23c0.6,0,1,0.4,1,1C25,16.8,24.6,17.3,24,17.3z"/>
		</g>
	</g>
</g>
</svg>
