<?xml version="1.0" encoding="utf-8"?>
<!-- Generator: Adobe Illustrator 22.0.1, SVG Export Plug-In . SVG Version: 6.00 Build 0)  -->
<svg version="1.1" id="Capa_1" xmlns="http://www.w3.org/2000/svg" xmlns:xlink="http://www.w3.org/1999/xlink" x="0px" y="0px"
	 viewBox="0 0 60 60" style="enable-background:new 0 0 60 60;" xml:space="preserve">
<style type="text/css">
	.st0{fill:#CECECE;}
</style>
<g>
	<path class="st0" d="M51.2,49.4L40.7,38.9c2.8-3.2,4.5-7.5,4.5-12.1c0-10.2-8.3-18.4-18.4-18.4c-10.2,0-18.4,8.3-18.4,18.4
		s8.3,18.4,18.4,18.4c4.6,0,8.8-1.7,12.1-4.5l10.5,10.5c0.2,0.2,0.6,0.4,0.9,0.4s0.7-0.1,0.9-0.4C51.7,50.7,51.7,49.9,51.2,49.4z
		 M11,26.8C11,18.1,18.1,11,26.8,11c8.7,0,15.8,7.1,15.8,15.8s-7.1,15.9-15.8,15.9C18.1,42.7,11,35.6,11,26.8z"/>
</g>
</svg>
