<?xml version="1.0" encoding="utf-8"?>
<!-- Generator: Adobe Illustrator 19.0.0, SVG Export Plug-In . SVG Version: 6.00 Build 0)  -->
<svg version="1.1" id="Layer_1" xmlns="http://www.w3.org/2000/svg" xmlns:xlink="http://www.w3.org/1999/xlink" x="0px" y="0px"
	 viewBox="-571 397.1 47.8 47.8" style="enable-background:new -571 397.1 47.8 47.8;" xml:space="preserve">
<style type="text/css">
	.st0{fill:none;}
	.st1{fill:#579FBC;}
</style>
<rect x="-571" y="397.1" class="st0" width="47.8" height="47.8"/>
<path class="st1" d="M-547.1,444.9c-13.2,0-23.9-10.7-23.9-23.9c0-13.2,10.7-23.9,23.9-23.9c13.2,0,23.9,10.7,23.9,23.9
	C-523.2,434.2-533.9,444.9-547.1,444.9 M-547.1,401.5c-10.7,0-19.5,8.8-19.5,19.5c0,10.7,8.8,19.5,19.5,19.5
	c10.7,0,19.5-8.8,19.5-19.5C-527.6,410.3-536.4,401.5-547.1,401.5"/>
<rect x="-571" y="397.1" class="st0" width="47.8" height="47.8"/>
<rect x="-559.8" y="418.3" class="st1" width="25.4" height="5.4"/>
<rect x="-571" y="397.1" class="st0" width="47.8" height="47.8"/>
<rect x="-549.6" y="408.3" class="st1" width="5" height="25.4"/>
</svg>
